<svg width="19" height="20" viewBox="0 0 19 20" fill="none" xmlns="http://www.w3.org/2000/svg">
<path d="M18.0049 17.1591L17.6049 14.3891C17.1949 11.5591 17.1849 8.6891 17.5849 5.8591L18.0149 2.7691C18.0749 2.3291 17.9349 1.8891 17.6149 1.5791C17.2949 1.2591 16.8649 1.1191 16.4249 1.1791L13.3249 1.6091C10.4949 2.0091 7.62494 1.9991 4.79494 1.5891L2.01494 1.1791C1.57494 1.1191 1.13494 1.2591 0.814936 1.5791C0.494936 1.8991 0.354935 2.3291 0.414935 2.7791L0.844935 5.8091C1.24494 8.6391 1.24494 11.5091 0.834935 14.3391L0.424935 17.1691C0.364935 17.6091 0.504936 18.0491 0.824935 18.3691C1.14494 18.6891 1.57494 18.8291 2.02494 18.7691L4.95494 18.3491C7.78494 17.9491 10.6549 17.9491 13.4849 18.3491L16.4149 18.7691C16.8549 18.8291 17.2949 18.6891 17.6149 18.3691C17.9349 18.0491 18.0749 17.6191 18.0149 17.1691L18.0049 17.1591ZM16.5849 17.5791L13.6549 17.1591C10.7149 16.7391 7.72494 16.7391 4.78494 17.1591L1.85494 17.5791C1.76494 17.5891 1.70494 17.5491 1.67494 17.5191C1.64494 17.4891 1.60494 17.4291 1.61494 17.3391L2.02494 14.5091C2.45494 11.5691 2.45494 8.5791 2.04494 5.6391L1.61494 2.6091C1.60494 2.5191 1.64494 2.4591 1.67494 2.4291C1.70494 2.3991 1.76494 2.3591 1.85494 2.3691L4.62494 2.7691C7.56494 3.1991 10.5549 3.2091 13.4949 2.7891L16.5949 2.3591C16.6849 2.3491 16.7449 2.3891 16.7749 2.4191C16.8049 2.4491 16.8449 2.5091 16.8349 2.5991L16.4049 5.6891C15.9949 8.6291 16.0049 11.6191 16.4249 14.5591L16.8249 17.3291C16.8349 17.4191 16.7949 17.4791 16.7649 17.5091C16.7349 17.5391 16.6749 17.5791 16.5849 17.5691V17.5791Z" fill="#BDAA8A" stroke="#BDAA8A" stroke-width="0.5" stroke-miterlimit="10"/>
<path d="M9.83477 10.3991L12.9948 7.23906C13.2248 7.00906 13.2248 6.62906 12.9948 6.39906C12.7648 6.16906 12.3848 6.16906 12.1548 6.39906L8.99477 9.55906L5.83477 6.39906C5.60477 6.16906 5.22477 6.16906 4.99477 6.39906C4.76477 6.62906 4.76477 7.00906 4.99477 7.23906L8.15477 10.3991L4.99477 13.5591C4.76477 13.7891 4.76477 14.1691 4.99477 14.3991C5.11477 14.5191 5.26477 14.5691 5.41477 14.5691C5.56477 14.5691 5.72477 14.5091 5.83477 14.3991L8.99477 11.2391L12.1548 14.3991C12.2748 14.5191 12.4248 14.5691 12.5748 14.5691C12.7248 14.5691 12.8848 14.5091 12.9948 14.3991C13.2248 14.1691 13.2248 13.7891 12.9948 13.5591L9.83477 10.3991Z" fill="#BDAA8A" stroke="#BDAA8A" stroke-width="0.5" stroke-miterlimit="10"/>
</svg>
