<svg width="37" height="43" viewBox="0 0 37 43" fill="none" xmlns="http://www.w3.org/2000/svg">
<g clip-path="url(#clip0_90_28)">
<path fill-rule="evenodd" clip-rule="evenodd" d="M18.4481 0L18.382 0.122776C16.3332 4.20272 15.0398 6.77158 12.5096 10.5115C13.3782 10.5115 13.9069 10.5115 14.7849 10.1526C16.8336 13.7793 17.4945 15.7248 18.4575 19.5781C19.4111 15.7248 20.0814 13.7793 22.1207 10.1526C22.9987 10.5115 23.518 10.5115 24.396 10.5115C21.8658 6.77158 20.5723 4.20272 18.5236 0.122776L18.4575 0L18.4481 0ZM18.4481 6.88491L16.8242 9.05711C17.6833 10.861 17.9855 12.1265 18.4481 14.497C18.9013 12.1265 19.2034 10.861 20.072 9.05711L18.4481 6.88491ZM36.9906 10.7949H36.8489C32.3172 11.0499 29.4565 11.2104 24.9814 10.8704C25.4157 11.6354 25.68 12.0887 26.4259 12.6743C24.3299 16.2726 22.9893 17.8214 20.1569 20.5886C23.9428 19.5025 25.9633 19.1059 30.0985 19.0775C30.2212 20.022 30.4856 20.4753 30.9199 21.2403C32.8648 17.1698 34.432 14.752 36.915 10.9271L36.9906 10.8043V10.7949ZM31.0709 14.242L28.3896 13.9209C27.2756 15.5737 26.3315 16.4709 24.5188 18.0481C26.7846 17.2642 28.0309 16.8959 30.0041 16.7448L31.0615 14.242H31.0709ZM0.0755295 10.9176L0 10.7949H0.141618C4.67339 11.0499 7.53407 11.2104 12.0092 10.8704C11.5749 11.6354 11.3105 12.0887 10.5647 12.6743C12.6606 16.2726 14.0013 17.8214 16.8336 20.5886C13.0477 19.5025 11.0273 19.1059 6.89206 19.0775C6.76933 20.022 6.50498 20.4753 6.07068 21.2403C4.1258 17.1603 2.55856 14.7426 0.0755295 10.9176ZM6.98648 16.7448L5.92906 14.242L8.61036 13.9209C9.72442 15.5737 10.6685 16.4709 12.4812 18.0481C10.2154 17.2642 8.96912 16.8959 6.99592 16.7448H6.98648ZM15.257 15.9042L14.8227 18.0387L18.1932 21.3158L13.6897 20.022L12.0658 21.4764L13.6897 22.9308L18.1932 21.6369L14.8227 24.9141L15.257 27.0485L17.3151 26.3591L18.4575 21.7786L19.5999 26.3591L21.6581 27.0485L22.0924 24.9141L18.7219 21.6369L23.2253 22.9308L24.8492 21.4764L23.2253 20.022L18.7219 21.3158L22.0924 18.0387L21.6581 15.9042L19.5999 16.5937L18.4575 21.1742L17.3151 16.5937L15.257 15.9042ZM36.9245 32.0635L37 32.1863H36.8584C32.3266 31.9313 29.4659 31.7707 24.9908 32.1107C25.4251 31.3457 25.6895 30.8924 26.4353 30.3068C24.3394 26.7085 22.9987 25.1597 20.1664 22.3925C23.9617 23.4786 25.9727 23.8752 30.1079 23.9036C30.2307 22.9591 30.495 22.5058 30.9293 21.7408C32.8742 25.8113 34.4414 28.2291 36.9245 32.054V32.0635ZM30.0135 26.2363L31.0709 28.7391L28.3896 29.0602C27.2756 27.4074 26.3315 26.5102 24.5188 24.933C26.7846 25.7169 28.0309 26.0852 30.0041 26.2363H30.0135ZM0 32.1863H0.141618C4.67339 31.9313 7.53407 31.7707 12.0092 32.1107C11.5749 31.3457 11.3105 30.8924 10.5647 30.3068C12.6606 26.7085 14.0013 25.1597 16.8336 22.3925C13.0477 23.4786 11.0273 23.8752 6.89206 23.9036C6.76933 22.9591 6.50498 22.5058 6.07068 21.7408C4.1258 25.8113 2.55856 28.2291 0.0755295 32.054L0 32.1768V32.1863ZM5.91962 28.7391L8.60092 29.0602C9.71498 27.4074 10.6591 26.5102 12.4718 24.933C10.2059 25.7169 8.95968 26.0852 6.98648 26.2363L5.92906 28.7391H5.91962ZM18.6463 42.8772L18.5803 43L18.5142 42.8772C16.4654 38.7973 15.172 36.2284 12.6417 32.4885C13.5198 32.4885 14.039 32.4885 14.9171 32.8474C16.9658 29.2207 17.6267 27.2752 18.5897 23.4219C19.5527 27.2752 20.2136 29.2207 22.2623 32.8474C23.1309 32.4885 23.6596 32.4885 24.5282 32.4885C21.998 36.2284 20.7045 38.7973 18.6558 42.8772H18.6463ZM20.072 33.8957L18.4481 36.0679L16.8242 33.8957C17.6833 32.0918 17.9855 30.8263 18.4481 28.4557C18.9013 30.8263 19.2034 32.0918 20.072 33.8957Z" fill="#5BD6DF"/>
</g>
<defs>
<clipPath id="clip0_90_28">
<rect width="37" height="43" fill="white"/>
</clipPath>
</defs>
</svg>
