<svg width="63" height="63" viewBox="0 0 63 63" fill="none" xmlns="http://www.w3.org/2000/svg">
<g clip-path="url(#clip0_74_161)">
<path d="M52.5634 11.7213C48.5518 9.879 44.3182 8.56486 39.9686 7.81177C39.9292 7.80513 39.8887 7.81086 39.8527 7.82817C39.8166 7.84549 39.7869 7.87353 39.7675 7.90844C39.2222 8.87519 38.619 10.1397 38.1975 11.1297C33.5091 10.4188 28.7403 10.4188 24.052 11.1297C23.5838 10.026 23.0518 8.9504 22.4588 7.90844C22.4393 7.87353 22.4096 7.84549 22.3736 7.82817C22.3376 7.81086 22.2971 7.80513 22.2577 7.81177C17.9073 8.56197 13.6729 9.87675 9.66284 11.7213C9.62835 11.7341 9.59956 11.7588 9.58163 11.7909C1.56147 23.7748 -0.638861 35.4647 0.440034 47.0077C0.447768 47.0644 0.474837 47.1121 0.521241 47.1508C5.19246 50.6088 10.416 53.2499 15.9699 54.9621C16.0091 54.9745 16.0513 54.9741 16.0902 54.9609C16.1292 54.9476 16.1629 54.9224 16.1865 54.8887C17.3801 53.2645 18.4345 51.5514 19.3497 49.7494C19.3687 49.7123 19.3752 49.67 19.3683 49.6289C19.3613 49.5878 19.3412 49.55 19.311 49.5213L19.2414 49.4787C17.5761 48.8367 15.9627 48.0674 14.4154 47.1779C14.3722 47.1534 14.3401 47.1132 14.3257 47.0657C14.3113 47.0182 14.3157 46.967 14.338 46.9226L14.3961 46.8492C14.7235 46.6043 15.0431 46.3529 15.3551 46.0951C15.3824 46.0731 15.4152 46.059 15.4499 46.0542C15.4847 46.0495 15.52 46.0542 15.5523 46.068C25.68 50.693 36.6429 50.693 46.6469 46.068C46.6801 46.0527 46.717 46.0471 46.7533 46.0519C46.7895 46.0567 46.8237 46.0717 46.8518 46.0951C47.1638 46.3529 47.4834 46.6043 47.8108 46.8492C47.8381 46.8678 47.8601 46.8931 47.8747 46.9226C47.8894 46.9521 47.8963 46.9849 47.8948 47.0178C47.8932 47.0508 47.8833 47.0828 47.8659 47.1108C47.8485 47.1388 47.8242 47.1619 47.7954 47.1779C46.2547 48.0815 44.6387 48.8501 42.9655 49.4749C42.9388 49.4845 42.9146 49.4999 42.8946 49.52C42.8745 49.54 42.8591 49.5642 42.8495 49.5909C42.8401 49.6166 42.8362 49.6441 42.8382 49.6714C42.8402 49.6987 42.848 49.7253 42.8611 49.7494C43.7892 51.5476 44.8526 53.2645 46.0204 54.8887C46.044 54.9224 46.0777 54.9476 46.1167 54.9609C46.1556 54.9741 46.1978 54.9745 46.237 54.9621C51.8018 53.2594 57.0345 50.6175 61.7089 47.1508C61.7321 47.1344 61.7514 47.1131 61.7654 47.0883C61.7795 47.0636 61.7879 47.0361 61.7901 47.0077C63.0816 33.6627 59.6284 22.0694 52.6407 11.7948C52.6347 11.7772 52.6245 11.7614 52.611 11.7486C52.5975 11.7358 52.5812 11.7265 52.5634 11.7213ZM20.8617 39.9775C17.8106 39.9775 15.3009 37.1778 15.3009 33.7439C15.3009 30.31 17.7642 27.5064 20.8617 27.5064C23.9824 27.5064 26.4688 30.3293 26.4224 33.7439C26.4224 37.1778 23.9592 39.9775 20.8617 39.9775ZM41.4187 39.9775C38.3715 39.9775 35.8579 37.1778 35.8579 33.7439C35.8579 30.31 38.3212 27.5064 41.4187 27.5064C44.5394 27.5064 47.0297 30.3293 46.9794 33.7439C46.9794 37.1778 44.5394 39.9775 41.4187 39.9775Z" fill="#898989"/>
</g>
<defs>
<clipPath id="clip0_74_161">
<rect width="61.8721" height="61.8721" fill="white" transform="translate(0.184814 0.47998)"/>
</clipPath>
</defs>
</svg>
