<svg width="37" height="37" viewBox="0 0 37 37" fill="none" xmlns="http://www.w3.org/2000/svg">
<g clip-path="url(#clip0_64_136)">
<path fill-rule="evenodd" clip-rule="evenodd" d="M5.05751 11.919C10.0549 6.4341 16.2275 6.60823 19.5533 10.0298C12.3881 11.7449 17.9078 19.5891 23.5494 17.2298C29.5741 14.7137 29.1823 5.13689 17.7511 1.0624C18.3954 0.984043 19.0483 0.949219 19.7187 0.949219C29.0865 0.949219 36.6957 8.67159 36.7131 18.2135C35.5291 14.8181 33.8923 12.3543 31.7158 10.5434C33.457 17.8131 31.2195 22.7146 25.8827 23.742C28.5468 16.8815 18.0645 17.2298 17.8295 24.273C17.6118 30.6721 25.6998 34.1284 34.4495 26.9632C31.7332 32.8573 25.8565 36.9405 19.0483 36.9405C15.7835 36.9405 12.7364 36.0002 10.1419 34.3809C13.7201 35.0774 17.072 35.0513 19.5446 33.8585C12.3794 32.483 9.54119 26.8327 10.7165 22.3751C15.7139 28.0341 20.3804 19.119 14.7127 15.1751C9.31483 11.9799 1.66211 16.8728 3.59488 28.2518C1.77529 25.4919 0.713135 22.1749 0.713135 18.6053C0.721841 12.3717 3.96054 6.90424 8.81858 3.85708C6.66815 6.49505 5.42317 9.19396 5.05751 11.9277V11.919Z" fill="#985AEA"/>
</g>
<defs>
<clipPath id="clip0_64_136">
<rect width="36" height="36" fill="white" transform="translate(0.721924 0.949219)"/>
</clipPath>
</defs>
</svg>
