<svg width="54" height="53" viewBox="0 0 54 53" fill="none" xmlns="http://www.w3.org/2000/svg">
<g clip-path="url(#clip0_74_156)">
<path d="M53.3051 26.5766C53.3051 12.0289 41.5845 0.236328 27.1284 0.236328C12.6658 0.2396 0.945221 12.0289 0.945221 26.5798C0.945221 39.7238 10.5193 50.6198 23.0318 52.5962V34.1907H16.3894V26.5798H23.0383V20.7719C23.0383 14.1721 26.9484 10.527 32.9265 10.527C35.7929 10.527 38.7868 11.0407 38.7868 11.0407V17.5195H35.4853C32.2361 17.5195 31.2218 19.5514 31.2218 21.6357V26.5766H38.4793L37.3209 34.1874H31.2185V52.5929C43.7309 50.6165 53.3051 39.7205 53.3051 26.5766Z" fill="#898989"/>
</g>
<defs>
<clipPath id="clip0_74_156">
<rect width="52.3533" height="52.3533" fill="white" transform="translate(0.951294 0.239258)"/>
</clipPath>
</defs>
</svg>
