<svg width="108" height="14" viewBox="0 0 108 14" fill="none" xmlns="http://www.w3.org/2000/svg">
<path d="M13.7021 7.12498L12.2955 8.17139C10.9231 9.20065 9.68802 10.4358 8.65876 11.8081L7.61235 13.2148C7.42365 13.4721 7.0291 13.4721 6.8404 13.2148L5.82829 11.8596C4.79903 10.4872 3.58107 9.25212 2.19157 8.22286L0.750604 7.14213C0.493288 6.95343 0.493288 6.55888 0.750604 6.37018L2.07149 5.37523C3.46099 4.34597 4.67895 3.12801 5.72537 1.75566L6.8404 0.280389C7.0291 0.0230735 7.40649 0.0230735 7.61235 0.280389L8.72738 1.75566C9.75664 3.12801 10.9918 4.34597 12.3813 5.37523L13.7021 6.37018C13.9595 6.55888 13.9595 6.95343 13.7021 7.14213V7.12498Z" fill="#985AEA"/>
<path d="M37.0395 7.12498L35.6329 8.17139C34.2605 9.20065 33.0254 10.4358 31.9962 11.8081L30.9497 13.2148C30.7611 13.4721 30.3665 13.4721 30.1778 13.2148L29.1657 11.8596C28.1364 10.4872 26.9185 9.25212 25.529 8.22286L24.088 7.14213C23.8307 6.95343 23.8307 6.55888 24.088 6.37018L25.4089 5.37523C26.7984 4.34597 28.0164 3.12801 29.0628 1.75566L30.1778 0.280389C30.3665 0.0230735 30.7439 0.0230735 30.9497 0.280389L32.0648 1.75566C33.094 3.12801 34.3292 4.34597 35.7187 5.37523L37.0395 6.37018C37.2969 6.55888 37.2969 6.95343 37.0395 7.14213V7.12498Z" fill="#985AEA"/>
<path d="M60.3769 7.12498L58.9703 8.17139C57.5979 9.20065 56.3628 10.4358 55.3336 11.8081L54.2872 13.2148C54.0985 13.4721 53.7039 13.4721 53.5152 13.2148L52.5031 11.8596C51.4738 10.4872 50.2559 9.25212 48.8664 8.22286L47.4254 7.14213C47.1681 6.95343 47.1681 6.55888 47.4254 6.37018L48.7463 5.37523C50.1358 4.34597 51.3538 3.12801 52.4002 1.75566L53.5152 0.280389C53.7039 0.0230735 54.0813 0.0230735 54.2872 0.280389L55.4022 1.75566C56.4314 3.12801 57.6666 4.34597 59.0561 5.37523L60.3769 6.37018C60.6343 6.55888 60.6343 6.95343 60.3769 7.14213V7.12498Z" fill="#985AEA"/>
<path d="M83.7146 7.12498L82.3079 8.17139C80.9356 9.20065 79.7005 10.4358 78.6712 11.8081L77.6248 13.2148C77.4361 13.4721 77.0415 13.4721 76.8529 13.2148L75.8407 11.8596C74.8115 10.4872 73.5935 9.25212 72.204 8.22286L70.7631 7.14213C70.5057 6.95343 70.5057 6.55888 70.7631 6.37018L72.0839 5.37523C73.4734 4.34597 74.6914 3.12801 75.7378 1.75566L76.8529 0.280389C77.0415 0.0230735 77.4189 0.0230735 77.6248 0.280389L78.7398 1.75566C79.7691 3.12801 81.0042 4.34597 82.3937 5.37523L83.7146 6.37018C83.9719 6.55888 83.9719 6.95343 83.7146 7.14213V7.12498Z" fill="#985AEA"/>
<path d="M107.052 7.12498L105.645 8.17139C104.273 9.20065 103.038 10.4358 102.009 11.8081L100.962 13.2148C100.774 13.4721 100.379 13.4721 100.19 13.2148L99.1781 11.8596C98.1489 10.4872 96.9309 9.25212 95.5414 8.22286L94.1005 7.14213C93.8431 6.95343 93.8431 6.55888 94.1005 6.37018L95.4213 5.37523C96.8108 4.34597 98.0288 3.12801 99.0752 1.75566L100.19 0.280389C100.379 0.0230735 100.756 0.0230735 100.962 0.280389L102.077 1.75566C103.106 3.12801 104.342 4.34597 105.731 5.37523L107.052 6.37018C107.309 6.55888 107.309 6.95343 107.052 7.14213V7.12498Z" fill="#985AEA"/>
</svg>
