<svg width="108" height="14" viewBox="0 0 108 14" fill="none" xmlns="http://www.w3.org/2000/svg">
<path d="M13.5149 7.12498L12.1082 8.17139C10.7359 9.20065 9.50077 10.4358 8.4715 11.8081L7.42509 13.2148C7.23639 13.4721 6.84184 13.4721 6.65314 13.2148L5.64104 11.8596C4.61178 10.4872 3.39382 9.25212 2.00431 8.22286L0.563348 7.14213C0.306032 6.95343 0.306032 6.55888 0.563348 6.37018L1.88423 5.37523C3.27374 4.34597 4.49169 3.12801 5.53811 1.75566L6.65314 0.280389C6.84184 0.0230735 7.21924 0.0230735 7.42509 0.280389L8.54012 1.75566C9.56938 3.12801 10.8045 4.34597 12.194 5.37523L13.5149 6.37018C13.7722 6.55888 13.7722 6.95343 13.5149 7.14213V7.12498Z" fill="#5BD6DF"/>
<path d="M36.8523 7.12498L35.4456 8.17139C34.0733 9.20065 32.8382 10.4358 31.8089 11.8081L30.7625 13.2148C30.5738 13.4721 30.1792 13.4721 29.9905 13.2148L28.9784 11.8596C27.9492 10.4872 26.7312 9.25212 25.3417 8.22286L23.9008 7.14213C23.6434 6.95343 23.6434 6.55888 23.9008 6.37018L25.2216 5.37523C26.6111 4.34597 27.8291 3.12801 28.8755 1.75566L29.9905 0.280389C30.1792 0.0230735 30.5566 0.0230735 30.7625 0.280389L31.8775 1.75566C32.9068 3.12801 34.1419 4.34597 35.5314 5.37523L36.8523 6.37018C37.1096 6.55888 37.1096 6.95343 36.8523 7.14213V7.12498Z" fill="#5BD6DF"/>
<path d="M60.1897 7.12498L58.783 8.17139C57.4107 9.20065 56.1756 10.4358 55.1463 11.8081L54.0999 13.2148C53.9112 13.4721 53.5166 13.4721 53.3279 13.2148L52.3158 11.8596C51.2866 10.4872 50.0686 9.25212 48.6791 8.22286L47.2382 7.14213C46.9808 6.95343 46.9808 6.55888 47.2382 6.37018L48.559 5.37523C49.9485 4.34597 51.1665 3.12801 52.2129 1.75566L53.3279 0.280389C53.5166 0.0230735 53.894 0.0230735 54.0999 0.280389L55.2149 1.75566C56.2442 3.12801 57.4793 4.34597 58.8688 5.37523L60.1897 6.37018C60.447 6.55888 60.447 6.95343 60.1897 7.14213V7.12498Z" fill="#5BD6DF"/>
<path d="M83.5273 7.12498L82.1207 8.17139C80.7483 9.20065 79.5132 10.4358 78.484 11.8081L77.4375 13.2148C77.2488 13.4721 76.8543 13.4721 76.6656 13.2148L75.6535 11.8596C74.6242 10.4872 73.4063 9.25212 72.0168 8.22286L70.5758 7.14213C70.3185 6.95343 70.3185 6.55888 70.5758 6.37018L71.8967 5.37523C73.2862 4.34597 74.5041 3.12801 75.5506 1.75566L76.6656 0.280389C76.8543 0.0230735 77.2317 0.0230735 77.4375 0.280389L78.5526 1.75566C79.5818 3.12801 80.8169 4.34597 82.2065 5.37523L83.5273 6.37018C83.7847 6.55888 83.7847 6.95343 83.5273 7.14213V7.12498Z" fill="#5BD6DF"/>
<path d="M106.865 7.12498L105.458 8.17139C104.086 9.20065 102.851 10.4358 101.821 11.8081L100.775 13.2148C100.586 13.4721 100.192 13.4721 100.003 13.2148L98.9909 11.8596C97.9616 10.4872 96.7437 9.25212 95.3542 8.22286L93.9132 7.14213C93.6559 6.95343 93.6559 6.55888 93.9132 6.37018L95.2341 5.37523C96.6236 4.34597 97.8415 3.12801 98.888 1.75566L100.003 0.280389C100.192 0.0230735 100.569 0.0230735 100.775 0.280389L101.89 1.75566C102.919 3.12801 104.154 4.34597 105.544 5.37523L106.865 6.37018C107.122 6.55888 107.122 6.95343 106.865 7.14213V7.12498Z" fill="#5BD6DF"/>
</svg>
