<svg width="107" height="14" viewBox="0 0 107 14" fill="none" xmlns="http://www.w3.org/2000/svg">
<path d="M13.1445 7.12498L11.7379 8.17139C10.3655 9.20065 9.1304 10.4358 8.10114 11.8081L7.05473 13.2148C6.86603 13.4721 6.47148 13.4721 6.28278 13.2148L5.27068 11.8596C4.24141 10.4872 3.02346 9.25212 1.63395 8.22286L0.192986 7.14213C-0.0643288 6.95343 -0.0643288 6.55888 0.192986 6.37018L1.51387 5.37523C2.90337 4.34597 4.12133 3.12801 5.16775 1.75566L6.28278 0.280389C6.47148 0.0230735 6.84888 0.0230735 7.05473 0.280389L8.16976 1.75566C9.19902 3.12801 10.4341 4.34597 11.8236 5.37523L13.1445 6.37018C13.4018 6.55888 13.4018 6.95343 13.1445 7.14213V7.12498Z" fill="#E3C348"/>
<path d="M36.4819 7.12498L35.0753 8.17139C33.7029 9.20065 32.4678 10.4358 31.4385 11.8081L30.3921 13.2148C30.2034 13.4721 29.8089 13.4721 29.6202 13.2148L28.6081 11.8596C27.5788 10.4872 26.3609 9.25212 24.9714 8.22286L23.5304 7.14213C23.2731 6.95343 23.2731 6.55888 23.5304 6.37018L24.8513 5.37523C26.2408 4.34597 27.4587 3.12801 28.5052 1.75566L29.6202 0.280389C29.8089 0.0230735 30.1863 0.0230735 30.3921 0.280389L31.5072 1.75566C32.5364 3.12801 33.7715 4.34597 35.161 5.37523L36.4819 6.37018C36.7392 6.55888 36.7392 6.95343 36.4819 7.14213V7.12498Z" fill="#E3C348"/>
<path d="M59.8193 7.12498L58.4127 8.17139C57.0403 9.20065 55.8052 10.4358 54.7759 11.8081L53.7295 13.2148C53.5408 13.4721 53.1463 13.4721 52.9576 13.2148L51.9455 11.8596C50.9162 10.4872 49.6983 9.25212 48.3088 8.22286L46.8678 7.14213C46.6105 6.95343 46.6105 6.55888 46.8678 6.37018L48.1887 5.37523C49.5782 4.34597 50.7961 3.12801 51.8426 1.75566L52.9576 0.280389C53.1463 0.0230735 53.5237 0.0230735 53.7295 0.280389L54.8446 1.75566C55.8738 3.12801 57.1089 4.34597 58.4984 5.37523L59.8193 6.37018C60.0766 6.55888 60.0766 6.95343 59.8193 7.14213V7.12498Z" fill="#E3C348"/>
<path d="M83.157 7.12498L81.7503 8.17139C80.378 9.20065 79.1429 10.4358 78.1136 11.8081L77.0672 13.2148C76.8785 13.4721 76.4839 13.4721 76.2952 13.2148L75.2831 11.8596C74.2539 10.4872 73.0359 9.25212 71.6464 8.22286L70.2054 7.14213C69.9481 6.95343 69.9481 6.55888 70.2054 6.37018L71.5263 5.37523C72.9158 4.34597 74.1338 3.12801 75.1802 1.75566L76.2952 0.280389C76.4839 0.0230735 76.8613 0.0230735 77.0672 0.280389L78.1822 1.75566C79.2115 3.12801 80.4466 4.34597 81.8361 5.37523L83.157 6.37018C83.4143 6.55888 83.4143 6.95343 83.157 7.14213V7.12498Z" fill="#E3C348"/>
<path d="M106.494 7.12498L105.088 8.17139C103.715 9.20065 102.48 10.4358 101.451 11.8081L100.405 13.2148C100.216 13.4721 99.8213 13.4721 99.6326 13.2148L98.6205 11.8596C97.5913 10.4872 96.3733 9.25212 94.9838 8.22286L93.5428 7.14213C93.2855 6.95343 93.2855 6.55888 93.5428 6.37018L94.8637 5.37523C96.2532 4.34597 97.4712 3.12801 98.5176 1.75566L99.6326 0.280389C99.8213 0.0230735 100.199 0.0230735 100.405 0.280389L101.52 1.75566C102.549 3.12801 103.784 4.34597 105.173 5.37523L106.494 6.37018C106.752 6.55888 106.752 6.95343 106.494 7.14213V7.12498Z" fill="#E3C348"/>
</svg>
