<svg width="108" height="14" viewBox="0 0 108 14" fill="none" xmlns="http://www.w3.org/2000/svg">
<path d="M13.6782 7.22605L12.2716 8.27247C10.8992 9.30173 9.6641 10.5368 8.63483 11.9092L7.58842 13.3158C7.39972 13.5732 7.00517 13.5732 6.81647 13.3158L5.80437 11.9607C4.77511 10.5883 3.55715 9.35319 2.16764 8.32393L0.726678 7.24321C0.469363 7.05451 0.469363 6.65996 0.726678 6.47126L2.04756 5.47631C3.43707 4.44704 4.65502 3.22909 5.70144 1.85674L6.81647 0.381463C7.00517 0.124148 7.38257 0.124148 7.58842 0.381463L8.70345 1.85674C9.73271 3.22909 10.9678 4.44704 12.3573 5.47631L13.6782 6.47126C13.9355 6.65996 13.9355 7.05451 13.6782 7.24321V7.22605Z" fill="#985AEA"/>
<path d="M37.0156 7.22605L35.609 8.27247C34.2366 9.30173 33.0015 10.5368 31.9722 11.9092L30.9258 13.3158C30.7371 13.5732 30.3426 13.5732 30.1539 13.3158L29.1418 11.9607C28.1125 10.5883 26.8945 9.35319 25.505 8.32393L24.0641 7.24321C23.8068 7.05451 23.8068 6.65996 24.0641 6.47126L25.385 5.47631C26.7745 4.44704 27.9924 3.22909 29.0388 1.85674L30.1539 0.381463C30.3426 0.124148 30.72 0.124148 30.9258 0.381463L32.0409 1.85674C33.0701 3.22909 34.3052 4.44704 35.6947 5.47631L37.0156 6.47126C37.2729 6.65996 37.2729 7.05451 37.0156 7.24321V7.22605Z" fill="#985AEA"/>
<path d="M60.353 7.22605L58.9464 8.27247C57.574 9.30173 56.3389 10.5368 55.3096 11.9092L54.2632 13.3158C54.0745 13.5732 53.68 13.5732 53.4913 13.3158L52.4792 11.9607C51.4499 10.5883 50.232 9.35319 48.8424 8.32393L47.4015 7.24321C47.1442 7.05451 47.1442 6.65996 47.4015 6.47126L48.7224 5.47631C50.1119 4.44704 51.3298 3.22909 52.3762 1.85674L53.4913 0.381463C53.68 0.124148 54.0574 0.124148 54.2632 0.381463L55.3783 1.85674C56.4075 3.22909 57.6426 4.44704 59.0321 5.47631L60.353 6.47126C60.6103 6.65996 60.6103 7.05451 60.353 7.24321V7.22605Z" fill="#985AEA"/>
<path d="M83.6907 7.22605L82.284 8.27247C80.9117 9.30173 79.6765 10.5368 78.6473 11.9092L77.6009 13.3158C77.4122 13.5732 77.0176 13.5732 76.8289 13.3158L75.8168 11.9607C74.7876 10.5883 73.5696 9.35319 72.1801 8.32393L70.7391 7.24321C70.4818 7.05451 70.4818 6.65996 70.7391 6.47126L72.06 5.47631C73.4495 4.44704 74.6675 3.22909 75.7139 1.85674L76.8289 0.381463C77.0176 0.124148 77.395 0.124148 77.6009 0.381463L78.7159 1.85674C79.7452 3.22909 80.9803 4.44704 82.3698 5.47631L83.6907 6.47126C83.948 6.65996 83.948 7.05451 83.6907 7.24321V7.22605Z" fill="#985AEA"/>
<path d="M106.889 6.21879L105.629 5.28074C104.343 4.32259 103.197 3.18353 102.232 1.90377L101.174 0.503393C101.019 0.302382 100.792 0.188477 100.544 0.188477C100.296 0.188477 100.061 0.302382 99.9139 0.503393L98.8552 1.90377C97.8904 3.18353 96.7446 4.32259 95.4581 5.28074L94.1985 6.21879C93.9975 6.3662 93.8835 6.59401 93.8835 6.84862C93.8835 7.10324 93.9975 7.33105 94.1985 7.48516L95.572 8.51701C96.8518 9.48186 97.9909 10.6209 98.9557 11.9074L99.9139 13.1939C100.061 13.3949 100.296 13.5088 100.544 13.5088C100.798 13.5088 101.026 13.3949 101.174 13.1939L102.172 11.8672C103.137 10.5807 104.276 9.44166 105.556 8.48351L106.882 7.48516C107.083 7.33105 107.197 7.10324 107.197 6.84862C107.197 6.59401 107.083 6.3662 106.882 6.21879H106.889ZM106.487 6.94913L105.16 7.94748C103.827 8.94583 102.641 10.1318 101.643 11.4652L100.644 12.7918C100.611 12.832 100.57 12.8387 100.55 12.8387C100.53 12.8387 100.483 12.8387 100.457 12.7918L99.4984 11.5054C98.5001 10.1653 97.3141 8.97933 95.9808 7.98098L94.6072 6.94913C94.567 6.91563 94.5603 6.87542 94.5603 6.85532C94.5603 6.83522 94.5603 6.78832 94.6072 6.76152L95.8668 5.82347C97.2069 4.82512 98.3929 3.64586 99.3979 2.31249L100.457 0.912114C100.49 0.871912 100.53 0.865212 100.55 0.865212C100.57 0.865212 100.617 0.865212 100.644 0.912114L101.703 2.31249C102.708 3.64586 103.894 4.82512 105.234 5.82347L106.494 6.76152C106.534 6.79502 106.541 6.83522 106.541 6.85532C106.541 6.87542 106.541 6.92233 106.494 6.95583L106.487 6.94913Z" fill="#985AEA"/>
</svg>
