<svg width="107" height="14" viewBox="0 0 107 14" fill="none" xmlns="http://www.w3.org/2000/svg">
<path d="M13.491 7.22605L12.0843 8.27247C10.712 9.30173 9.47684 10.5368 8.44758 11.9092L7.40116 13.3158C7.21247 13.5732 6.81792 13.5732 6.62922 13.3158L5.61711 11.9607C4.58785 10.5883 3.36989 9.35319 1.98039 8.32393L0.539422 7.24321C0.282107 7.05451 0.282107 6.65996 0.539422 6.47126L1.86031 5.47631C3.24981 4.44704 4.46777 3.22909 5.51418 1.85674L6.62922 0.381463C6.81792 0.124148 7.19531 0.124148 7.40116 0.381463L8.5162 1.85674C9.54546 3.22909 10.7806 4.44704 12.1701 5.47631L13.491 6.47126C13.7483 6.65996 13.7483 7.05451 13.491 7.24321V7.22605Z" fill="#5BD6DF"/>
<path d="M36.8284 7.22605L35.4217 8.27247C34.0494 9.30173 32.8142 10.5368 31.785 11.9092L30.7386 13.3158C30.5499 13.5732 30.1553 13.5732 29.9666 13.3158L28.9545 11.9607C27.9253 10.5883 26.7073 9.35319 25.3178 8.32393L23.8768 7.24321C23.6195 7.05451 23.6195 6.65996 23.8768 6.47126L25.1977 5.47631C26.5872 4.44704 27.8052 3.22909 28.8516 1.85674L29.9666 0.381463C30.1553 0.124148 30.5327 0.124148 30.7386 0.381463L31.8536 1.85674C32.8829 3.22909 34.118 4.44704 35.5075 5.47631L36.8284 6.47126C37.0857 6.65996 37.0857 7.05451 36.8284 7.24321V7.22605Z" fill="#5BD6DF"/>
<path d="M60.1658 7.22605L58.7591 8.27247C57.3868 9.30173 56.1516 10.5368 55.1224 11.9092L54.076 13.3158C53.8873 13.5732 53.4927 13.5732 53.304 13.3158L52.2919 11.9607C51.2627 10.5883 50.0447 9.35319 48.6552 8.32393L47.2142 7.24321C46.9569 7.05451 46.9569 6.65996 47.2142 6.47126L48.5351 5.47631C49.9246 4.44704 51.1426 3.22909 52.189 1.85674L53.304 0.381463C53.4927 0.124148 53.8701 0.124148 54.076 0.381463L55.191 1.85674C56.2203 3.22909 57.4554 4.44704 58.8449 5.47631L60.1658 6.47126C60.4231 6.65996 60.4231 7.05451 60.1658 7.24321V7.22605Z" fill="#5BD6DF"/>
<path d="M83.5034 7.22605L82.0968 8.27247C80.7244 9.30173 79.4893 10.5368 78.46 11.9092L77.4136 13.3158C77.2249 13.5732 76.8304 13.5732 76.6417 13.3158L75.6296 11.9607C74.6003 10.5883 73.3823 9.35319 71.9928 8.32393L70.5519 7.24321C70.2946 7.05451 70.2946 6.65996 70.5519 6.47126L71.8728 5.47631C73.2623 4.44704 74.4802 3.22909 75.5266 1.85674L76.6417 0.381463C76.8304 0.124148 77.2078 0.124148 77.4136 0.381463L78.5286 1.85674C79.5579 3.22909 80.793 4.44704 82.1825 5.47631L83.5034 6.47126C83.7607 6.65996 83.7607 7.05451 83.5034 7.24321V7.22605Z" fill="#5BD6DF"/>
<path d="M106.702 6.21879L105.442 5.28074C104.156 4.32259 103.01 3.18353 102.045 1.90377L100.986 0.503393C100.832 0.302382 100.604 0.188477 100.356 0.188477C100.109 0.188477 99.874 0.302382 99.7266 0.503393L98.6679 1.90377C97.7031 3.18353 96.5573 4.32259 95.2709 5.28074L94.0112 6.21879C93.8102 6.3662 93.6963 6.59401 93.6963 6.84862C93.6963 7.10324 93.8102 7.33105 94.0112 7.48516L95.3848 8.51701C96.6645 9.48186 97.8036 10.6209 98.7685 11.9074L99.7266 13.1939C99.874 13.3949 100.109 13.5088 100.356 13.5088C100.611 13.5088 100.839 13.3949 100.986 13.1939L101.985 11.8672C102.949 10.5807 104.089 9.44166 105.368 8.48351L106.695 7.48516C106.896 7.33105 107.01 7.10324 107.01 6.84862C107.01 6.59401 106.896 6.3662 106.695 6.21879H106.702ZM106.3 6.94913L104.973 7.94748C103.64 8.94583 102.454 10.1318 101.455 11.4652L100.457 12.7918C100.423 12.832 100.383 12.8387 100.363 12.8387C100.343 12.8387 100.296 12.8387 100.269 12.7918L99.3112 11.5054C98.3128 10.1653 97.1269 8.97933 95.7935 7.98098L94.4199 6.94913C94.3797 6.91563 94.373 6.87542 94.373 6.85532C94.373 6.83522 94.373 6.78832 94.4199 6.76152L95.6796 5.82347C97.0197 4.82512 98.2056 3.64586 99.2107 2.31249L100.269 0.912114C100.303 0.871912 100.343 0.865212 100.363 0.865212C100.383 0.865212 100.43 0.865212 100.457 0.912114L101.516 2.31249C102.521 3.64586 103.707 4.82512 105.047 5.82347L106.306 6.76152C106.347 6.79502 106.353 6.83522 106.353 6.85532C106.353 6.87542 106.353 6.92233 106.306 6.95583L106.3 6.94913Z" fill="#5BD6DF"/>
</svg>
