<svg width="108" height="14" viewBox="0 0 108 14" fill="none" xmlns="http://www.w3.org/2000/svg">
<path d="M14.1206 7.22605L12.7139 8.27247C11.3416 9.30173 10.1065 10.5368 9.07722 11.9092L8.0308 13.3158C7.8421 13.5732 7.44755 13.5732 7.25886 13.3158L6.24675 11.9607C5.21749 10.5883 3.99953 9.35319 2.61003 8.32393L1.16906 7.24321C0.911745 7.05451 0.911745 6.65996 1.16906 6.47126L2.48995 5.47631C3.87945 4.44704 5.09741 3.22909 6.14382 1.85674L7.25886 0.381463C7.44755 0.124148 7.82495 0.124148 8.0308 0.381463L9.14584 1.85674C10.1751 3.22909 11.4102 4.44704 12.7997 5.47631L14.1206 6.47126C14.3779 6.65996 14.3779 7.05451 14.1206 7.24321V7.22605Z" fill="#E3C348"/>
<path d="M37.458 7.22605L36.0513 8.27247C34.679 9.30173 33.4439 10.5368 32.4146 11.9092L31.3682 13.3158C31.1795 13.5732 30.785 13.5732 30.5963 13.3158L29.5842 11.9607C28.5549 10.5883 27.3369 9.35319 25.9474 8.32393L24.5065 7.24321C24.2491 7.05451 24.2491 6.65996 24.5065 6.47126L25.8273 5.47631C27.2169 4.44704 28.4348 3.22909 29.4812 1.85674L30.5963 0.381463C30.785 0.124148 31.1624 0.124148 31.3682 0.381463L32.4832 1.85674C33.5125 3.22909 34.7476 4.44704 36.1371 5.47631L37.458 6.47126C37.7153 6.65996 37.7153 7.05451 37.458 7.24321V7.22605Z" fill="#E3C348"/>
<path d="M60.7954 7.22605L59.3887 8.27247C58.0164 9.30173 56.7813 10.5368 55.752 11.9092L54.7056 13.3158C54.5169 13.5732 54.1224 13.5732 53.9337 13.3158L52.9216 11.9607C51.8923 10.5883 50.6743 9.35319 49.2848 8.32393L47.8439 7.24321C47.5866 7.05451 47.5866 6.65996 47.8439 6.47126L49.1648 5.47631C50.5543 4.44704 51.7722 3.22909 52.8186 1.85674L53.9337 0.381463C54.1224 0.124148 54.4998 0.124148 54.7056 0.381463L55.8206 1.85674C56.8499 3.22909 58.085 4.44704 59.4745 5.47631L60.7954 6.47126C61.0527 6.65996 61.0527 7.05451 60.7954 7.24321V7.22605Z" fill="#E3C348"/>
<path d="M84.1331 7.22605L82.7264 8.27247C81.354 9.30173 80.1189 10.5368 79.0897 11.9092L78.0433 13.3158C77.8546 13.5732 77.46 13.5732 77.2713 13.3158L76.2592 11.9607C75.2299 10.5883 74.012 9.35319 72.6225 8.32393L71.1815 7.24321C70.9242 7.05451 70.9242 6.65996 71.1815 6.47126L72.5024 5.47631C73.8919 4.44704 75.1099 3.22909 76.1563 1.85674L77.2713 0.381463C77.46 0.124148 77.8374 0.124148 78.0433 0.381463L79.1583 1.85674C80.1875 3.22909 81.4227 4.44704 82.8122 5.47631L84.1331 6.47126C84.3904 6.65996 84.3904 7.05451 84.1331 7.24321V7.22605Z" fill="#E3C348"/>
<path d="M107.331 6.21879L106.072 5.28074C104.785 4.32259 103.639 3.18353 102.675 1.90377L101.616 0.503393C101.462 0.302382 101.234 0.188477 100.986 0.188477C100.738 0.188477 100.504 0.302382 100.356 0.503393L99.2976 1.90377C98.3327 3.18353 97.187 4.32259 95.9005 5.28074L94.6408 6.21879C94.4398 6.3662 94.3259 6.59401 94.3259 6.84862C94.3259 7.10324 94.4398 7.33105 94.6408 7.48516L96.0144 8.51701C97.2942 9.48186 98.4332 10.6209 99.3981 11.9074L100.356 13.1939C100.504 13.3949 100.738 13.5088 100.986 13.5088C101.241 13.5088 101.468 13.3949 101.616 13.1939L102.614 11.8672C103.579 10.5807 104.718 9.44166 105.998 8.48351L107.325 7.48516C107.526 7.33105 107.64 7.10324 107.64 6.84862C107.64 6.59401 107.526 6.3662 107.325 6.21879H107.331ZM106.929 6.94913L105.603 7.94748C104.269 8.94583 103.083 10.1318 102.085 11.4652L101.087 12.7918C101.053 12.832 101.013 12.8387 100.993 12.8387C100.973 12.8387 100.926 12.8387 100.899 12.7918L99.9408 11.5054C98.9425 10.1653 97.7565 8.97933 96.4231 7.98098L95.0496 6.94913C95.0094 6.91563 95.0027 6.87542 95.0027 6.85532C95.0027 6.83522 95.0027 6.78832 95.0496 6.76152L96.3092 5.82347C97.6493 4.82512 98.8353 3.64586 99.8403 2.31249L100.899 0.912114C100.932 0.871912 100.973 0.865212 100.993 0.865212C101.013 0.865212 101.06 0.865212 101.087 0.912114L102.145 2.31249C103.15 3.64586 104.336 4.82512 105.676 5.82347L106.936 6.76152C106.976 6.79502 106.983 6.83522 106.983 6.85532C106.983 6.87542 106.983 6.92233 106.936 6.95583L106.929 6.94913Z" fill="#E3C348"/>
</svg>
