<svg width="171" height="62" viewBox="0 0 171 62" fill="none" xmlns="http://www.w3.org/2000/svg">
<path d="M70.6356 10.596C70.4385 10.5902 70.2418 10.6158 70.0526 10.6719C67.1003 11.3716 64.1889 12.2355 61.3317 13.2598C59.1874 13.9978 57.1418 14.9991 55.2411 16.2409C54.4739 16.7543 53.7387 17.3143 53.0394 17.9179C52.8549 18.0472 52.7175 18.2339 52.6484 18.4492C52.8713 19.8294 54.178 20.5781 55.3097 21.1544C57.172 22.0654 59.2444 22.4528 61.3077 22.2758C60.6972 21.7547 59.8536 21.6719 59.2055 21.2096C58.9448 21.0129 58.938 20.6575 58.8625 20.3677C58.2349 20.4919 57.6348 20.7334 57.0106 20.8783C57.5868 20.5333 58.2109 20.2607 58.8076 19.9502C62.0038 18.57 65.4538 17.98 68.8764 17.5073C71.2769 17.245 73.7015 17.1622 76.0095 16.4342C75.8209 15.9166 75.7249 15.1506 75.063 15.054C73.6261 14.2983 72.9368 12.7422 72.1103 11.4276C71.9541 11.1751 71.737 10.9665 71.4792 10.8211C71.2214 10.6757 70.9312 10.5983 70.6356 10.596Z" fill="#FAFAFA"/>
<path d="M100.19 10.5994C99.962 10.5892 99.7345 10.6262 99.5216 10.7081C99.3086 10.79 99.1146 10.9151 98.9517 11.0756C98.4888 11.5483 98.2212 12.1832 97.868 12.7387C97.3826 13.6448 96.6874 14.42 95.8413 14.9987C95.6218 15.1437 95.2823 15.1161 95.1554 15.3852C94.9619 15.7166 94.8284 16.0799 94.761 16.4583C97.0724 17.1484 99.4901 17.2277 101.877 17.5244C105.649 18.0006 109.459 18.6976 112.899 20.409L113.777 20.8852C113.153 20.723 112.539 20.516 111.915 20.3366C111.815 20.6505 111.802 21.0473 111.496 21.2371C110.865 21.6684 110.032 21.7512 109.459 22.2722C110.439 22.3823 111.43 22.3345 112.395 22.1308C114.271 21.7616 116.191 21.0577 117.563 19.6637C117.854 19.2507 118.036 18.7697 118.091 18.2663C115.855 16.2492 113.259 14.6778 110.44 13.6358C107.298 12.4461 104.082 11.4607 100.814 10.6857C100.615 10.6273 100.41 10.5959 100.203 10.5925L100.19 10.5994Z" fill="#FAFAFA"/>
<path d="M85.3815 0.134374C85.3455 0.132516 85.3094 0.137831 85.2754 0.150011C85.2414 0.162192 85.2102 0.180997 85.1834 0.205356C85.1566 0.229715 85.1349 0.259147 85.1195 0.291965C85.104 0.324782 85.0952 0.360346 85.0934 0.396611C84.5516 2.19429 84.0646 4.05406 83.0358 5.65162C82.6554 6.22881 82.1395 6.70283 81.5337 7.03179C80.0831 7.86334 78.4473 8.32571 76.88 8.82602C76.6379 8.90377 76.4203 9.04417 76.249 9.23317C76.4235 9.40091 76.63 9.53122 76.856 9.61617C78.5707 10.1613 80.3232 10.6513 81.8492 11.6174C82.7546 12.1764 83.2827 13.1425 83.7251 14.081C84.2575 15.402 84.7155 16.7521 85.0969 18.1249C85.2135 18.5183 85.6799 18.2871 85.6902 17.9662C86.0434 16.6601 86.4682 15.3745 86.9625 14.1155L86.9282 14.0258L87.0345 13.9948C87.288 13.4826 87.5792 12.9901 87.9055 12.5214C88.3755 11.9395 88.9713 11.4733 89.6477 11.1585L90.3541 10.8135C91.4927 10.3408 92.6655 9.97846 93.8384 9.61272C94.075 9.51265 94.4557 9.44019 94.3905 9.10205C94.1703 8.93835 93.9195 8.82099 93.6532 8.75701C92.11 8.28085 90.5462 7.80469 89.1436 6.99729C88.537 6.65573 88.027 6.16405 87.6621 5.56881C86.6675 3.98506 86.184 2.15633 85.6559 0.393157C85.647 0.320776 85.6127 0.253952 85.5593 0.20464C85.5059 0.155328 85.4368 0.126748 85.3644 0.124023L85.3815 0.134374Z" fill="#FAFAFA"/>
<path d="M16.3172 11.9556C13.8829 11.927 11.4765 12.4782 9.29445 13.5642C7.11241 14.6502 5.21669 16.2402 3.76216 18.2043C2.49084 19.8629 1.51501 21.7308 0.878035 23.725C-0.131152 26.9175 -0.273238 30.3234 0.466508 33.5898C0.656553 34.4344 0.905222 35.2645 1.21069 36.0741H1.23126C1.6732 37.2751 2.24841 38.4222 2.94596 39.4935C3.04884 39.597 3.10028 39.8385 3.26833 39.8385L3.19288 39.8558C4.13595 41.2389 5.27515 42.4758 6.57427 43.527H6.61884C7.8354 44.5256 9.20267 45.3224 10.669 45.8871C12.7421 46.698 14.9642 47.051 17.1848 46.9222C20.772 46.7877 24.4551 46.0769 27.5622 44.1619C28.5117 43.6479 29.3722 42.9826 30.1102 42.1917V39.8834C30.1102 38.6757 30.1342 37.4681 30.1102 36.2604C30.1582 35.4703 30.0348 34.6525 30.3468 33.9003L30.3194 33.9383C30.6377 33.3211 31.1419 32.8211 31.7598 32.5098C32.3222 32.2027 33.0286 32.1958 33.5259 31.7783C33.5259 31.6955 33.5259 31.5264 33.5053 31.4332C33.0904 31.3942 32.6734 31.3827 32.257 31.3987H17.0305C16.7287 31.3194 16.3446 31.6058 16.5812 31.9198C16.9413 32.2648 17.4832 32.3166 17.953 32.4684C19.3506 32.7072 20.6171 33.4416 21.523 34.5386C21.8397 35.0452 22.0281 35.6222 22.0717 36.219C22.0717 38.0167 22.0546 39.8144 22.0717 41.612C22.0031 42.5333 21.9997 43.4925 21.5985 44.3482C20.8886 45.1384 19.7089 44.8037 18.7623 44.852C17.1394 44.6025 15.6237 43.8832 14.4001 42.7817C13.2833 41.7609 12.3545 40.5496 11.6566 39.2036C11.0255 37.9851 10.532 36.6993 10.1854 35.3702C10.0002 34.5973 9.84248 33.8175 9.71217 33.0308C9.54013 31.6347 9.47935 30.2271 9.53041 28.8213C9.6301 27.0549 9.92455 25.3051 10.4083 23.6042H10.4289C10.9764 21.7432 11.8409 19.992 12.9838 18.4286C13.7073 17.4952 14.5703 16.6804 15.5421 16.0133C16.3522 15.4495 17.2695 15.0607 18.2363 14.8713C19.2031 14.6818 20.1984 14.6959 21.1595 14.9126C23.2343 15.3887 24.9558 16.8172 26.2316 18.4803C27.0573 19.6046 27.7351 20.8317 28.2481 22.1309C28.4864 22.7308 28.6914 23.3436 28.8619 23.9665C28.9751 24.3495 29.0265 24.7843 29.3317 25.0672C29.8427 24.1183 29.7364 22.9762 29.853 21.9239C29.9125 20.868 29.941 19.8133 29.9387 18.7598C29.901 17.6971 29.9593 16.5998 29.6164 15.5785C27.7268 15.6268 25.9229 14.9333 24.2837 14.0327C21.8469 12.6703 19.1083 11.9476 16.3206 11.9314L16.3172 11.9556Z" fill="#FAFAFA"/>
<path d="M32.2433 22.952H31.9792C32.6651 23.6248 33.5636 24.0837 34.0369 24.9567C34.685 26.1988 34.6885 27.6549 34.6645 29.0213C34.6816 30.1841 34.6645 31.3469 34.6645 32.5097V36.2568C35.3045 35.6192 35.9924 35.032 36.7221 34.5006C37.7382 33.7734 38.8157 33.1372 39.9423 32.5994V29.1766C39.9423 28.521 39.9114 27.8688 39.9629 27.2167C40.0133 26.9166 40.1729 26.6461 40.4106 26.458C40.6483 26.2698 40.9472 26.1774 41.2489 26.1988C42.5144 26.1988 43.7832 26.1988 45.0487 26.1988C46.1006 26.2588 47.1009 26.6774 47.8848 27.3858C48.8341 28.3167 49.5408 29.4686 49.9424 30.7396L50.1071 30.5395C50.1997 29.466 50.1339 28.3846 49.9116 27.3306C49.6987 26.3234 49.4179 25.332 49.0714 24.3632C45.3916 24.3632 41.7016 24.4046 38.039 23.9905C36.3517 23.7559 34.6885 23.3971 33.0286 23.0417C32.7747 22.9803 32.5147 22.9479 32.2536 22.9451L32.2433 22.952Z" fill="#FAFAFA"/>
<path d="M46.482 31.8887C46.1047 31.8887 45.7241 31.937 45.3606 31.9646C41.6766 32.4667 38.2007 33.9778 35.3124 36.3328C34.3421 37.1827 33.4701 38.1399 32.7129 39.1863C32.0778 40.0805 31.5332 41.0365 31.0874 42.0399C32.1523 41.3367 33.2561 40.695 34.3933 40.118L34.6746 39.9972V40.5527C34.7236 41.4937 34.574 42.4344 34.2356 43.3131L34.2802 43.4166L34.1499 43.4545C33.4983 44.7657 32.3254 45.6766 31.2692 46.6324C32.0785 46.6565 32.8535 46.3943 33.6423 46.2459C35.7529 45.818 37.9024 45.6144 40.0553 45.6387H50.0005C50.4117 44.5571 50.7384 43.445 50.9779 42.3124C51.1338 41.4308 51.213 40.5372 51.2145 39.6418C51.194 39.4037 51.2145 39.0828 50.9539 38.9966C50.5453 40.2 49.8711 41.2947 48.982 42.1986C48.0554 43.1221 46.8182 43.6626 45.5149 43.7133C44.0448 43.7133 42.5759 43.7133 41.1081 43.7133C40.758 43.6901 40.429 43.5363 40.1856 43.282C40.0395 43.0101 39.9585 42.7076 39.949 42.3987V37.9649L40.6589 37.7855C41.1664 37.6727 41.6808 37.5658 42.2021 37.4646C44.8619 37.0055 47.5557 36.7746 50.2543 36.7745C50.4094 36.763 50.5632 36.7376 50.7139 36.6986C50.5589 36.237 50.2562 35.8402 49.8531 35.5703C49.3627 35.2805 48.7865 35.1631 48.3133 34.856C47.5725 34.2177 47.6994 33.1308 47.8709 32.2544C47.4584 32.0034 46.9804 31.8832 46.4991 31.9094L46.482 31.8887Z" fill="#FAFAFA"/>
<path d="M70.2926 24.3737C68.7356 24.3737 67.1764 24.3794 65.6148 24.3909C65.3782 24.8533 66.0367 24.9706 66.3247 25.1431C67.4462 25.6331 67.7411 26.996 67.6313 28.107V30.2049C67.6313 32.0923 67.6313 33.9762 67.6313 35.8671V37.5509L66.9215 36.6572C66.0161 35.4703 65.0833 34.3006 64.1779 33.1136C63.6121 32.389 63.0497 31.6679 62.4907 30.9433C61.9694 30.2705 61.4618 29.608 60.9337 28.9351C59.7506 27.4135 58.5674 25.9022 57.3877 24.3806C55.4981 24.3806 53.6154 24.3599 51.7327 24.3806V24.7256C52.2059 25.1017 52.8609 25.2018 53.2039 25.7366C53.9446 26.6648 53.6977 27.9035 53.7457 28.9972C53.7457 29.9703 53.7457 30.9433 53.7457 31.9198V40.8288C53.7457 41.7466 53.8554 42.6886 53.5845 43.5891C53.4285 43.9491 53.2009 44.2732 52.9158 44.5415C52.559 44.7641 52.1891 44.9646 51.8081 45.1418C51.6332 45.2315 51.7121 45.4455 51.7155 45.5938C54.8363 45.5938 57.957 45.5938 61.0743 45.5938C61.1772 45.097 60.6148 45.0038 60.2959 44.8175C60.0118 44.6708 59.7606 44.4672 59.5577 44.2192C59.3548 43.9711 59.2045 43.6839 59.1161 43.3752C58.9241 42.3401 59.0578 41.2774 59.0098 40.2319C59.0098 39.1726 59.0098 38.1133 59.0098 37.0575V30.9709L58.9755 30.65L59.051 30.6121C59.3596 31.0675 59.7129 31.4919 60.0455 31.9301C60.433 32.4201 60.8137 32.9204 61.2012 33.4104C61.9077 34.3305 62.6164 35.2506 63.3274 36.1707C63.9242 36.9505 64.5255 37.728 65.1313 38.5032C66.0504 39.6625 66.9317 40.8598 67.8748 42.0054C68.6362 43.0405 69.4421 44.0308 70.2137 45.0487C70.6531 45.6115 71.1359 46.1388 71.6575 46.6255C72.456 47.3491 73.4623 47.7986 74.5313 47.9091C74.3873 47.3881 74.0169 46.9844 73.7871 46.5048L73.6842 46.4634L73.7357 46.4012C73.5471 45.7319 73.2624 45.0901 73.139 44.4069C73.032 43.8076 72.9576 43.2029 72.916 42.5954C72.8475 41.3809 72.8818 40.1629 72.868 38.9483V34.9009C72.8852 33.6415 72.868 28.5245 72.868 27.7102C72.8303 26.7338 73.1801 25.6124 74.1198 25.1638C74.4456 24.9671 75.008 24.8878 74.9497 24.3806C73.3882 24.3668 71.8278 24.3599 70.2685 24.3599L70.2926 24.3737Z" fill="#FAFAFA"/>
<path d="M84.6201 19.8157C84.1836 19.8151 83.7477 19.8509 83.317 19.9226C82.2449 20.0644 81.2123 20.4227 80.2812 20.9759C79.3501 21.5291 78.5397 22.2658 77.8985 23.1419C77.4391 23.8152 77.0991 24.5635 76.8937 25.3536V25.3709C76.5602 26.9037 76.6794 28.5013 77.2366 29.9669C77.6035 30.9609 78.1657 31.8704 78.8896 32.6409H78.9136C79.8539 33.5125 80.8761 34.2902 81.9658 34.9631C84.1332 36.5399 86.424 37.9512 88.5296 39.5936C89.1284 40.1348 89.5262 40.8649 89.6579 41.6638C89.688 42.3593 89.5796 43.0538 89.339 43.7065C88.9856 44.4826 88.3675 45.1056 87.5969 45.4627C86.7121 45.9079 85.6935 45.8699 84.7367 45.756C84.2841 45.6801 83.8314 45.5801 83.389 45.4593C82.5182 45.1805 81.6923 44.776 80.937 44.2586C80.6763 44.055 80.4157 43.8514 80.1619 43.6375L79.8018 43.32C79.5652 43.0819 79.332 42.8439 79.116 42.592C78.6387 42.0384 78.2009 41.4515 77.8059 40.8357C77.1681 39.9041 76.7771 38.8207 76.0912 37.9236C75.8794 38.8742 75.7895 39.8483 75.8237 40.8219C75.818 41.1191 75.8294 41.4163 75.858 41.7121C75.8984 42.5887 76.0132 43.4602 76.201 44.3172C76.4178 45.4188 76.9153 46.4449 77.6447 47.2949C78.7764 46.6048 80.2099 46.7015 81.4171 47.1293C83.4055 47.7391 85.4967 47.934 87.5626 47.7021C88.5179 47.6012 89.4562 47.3762 90.3541 47.0327C91.5938 46.5285 92.6646 45.6786 93.4405 44.5829C94.121 43.5548 94.551 42.3798 94.6957 41.1532H94.7163C94.7956 40.4822 94.8323 39.8069 94.826 39.1312C94.802 37.6874 94.4049 36.2747 93.6737 35.0321C93.1943 34.3034 92.634 33.632 92.0036 33.0308C90.4741 31.7438 88.78 30.6707 87.1476 29.5218C85.6627 28.4866 84.1469 27.5101 82.6894 26.4164C81.8217 25.7021 81.2045 24.6221 81.4068 23.4662C81.5309 22.8113 81.8989 22.2287 82.4356 21.8376C83.3993 21.1786 84.6373 21.1475 85.7587 21.2752C87.2009 21.433 88.5249 22.151 89.4487 23.2765C90.042 23.9907 90.3781 24.8809 90.9199 25.6297C91.9728 26.3991 93.0839 27.1789 94.3493 27.5343C94.3156 26.9024 94.1619 26.2828 93.8967 25.709C93.5537 24.843 93.2108 23.9838 92.837 23.1315C92.3555 22.1535 91.8125 21.2073 91.2114 20.2987C90.3541 20.7128 89.3904 20.5368 88.5022 20.3298C87.231 20.0151 85.929 19.8427 84.6201 19.8157Z" fill="#FAFAFA"/>
<path d="M104.991 24.3702C101.87 24.4047 98.7458 24.3392 95.6251 24.4013C95.5976 24.9741 96.2801 25.0086 96.6539 25.2708C97.5798 25.847 97.7959 27.0409 97.7136 28.0553C97.7136 28.8972 97.7136 29.7391 97.7136 30.581L97.7376 30.6776C97.6999 31.0132 97.6895 31.3513 97.7067 31.6886V35.5772C97.6793 36.1034 97.6965 36.6309 97.7582 37.1541V37.0506C97.7753 37.1196 97.8028 37.2542 97.8199 37.3197C97.7944 37.3591 97.7669 37.397 97.7376 37.4336C97.6896 38.4894 97.7376 39.5487 97.717 40.6045V42.9163C97.6523 43.6916 97.4599 44.4507 97.1477 45.1625L97.1786 45.2626H97.086C96.4861 46.2442 95.7388 47.1265 94.8706 47.878C97.4564 47.9401 99.6718 46.3391 102.141 45.8561C103.087 45.6838 104.046 45.5972 105.008 45.5973C105.179 45.1211 104.593 44.99 104.281 44.821C103.458 44.4759 103.033 43.5477 102.985 42.6817C102.985 41.9191 103.002 41.1566 102.985 40.3975C102.967 39.6384 103.002 38.9069 102.985 38.1616C102.985 37.8369 103.113 37.5254 103.339 37.2939C103.565 37.0624 103.872 36.9292 104.195 36.9229C106.339 36.9229 108.478 36.8988 110.618 36.9229C110.787 37.0231 110.966 37.1031 111.153 37.161C111.413 37.5165 111.576 37.9339 111.627 38.3721L111.534 38.4687C111.555 38.5343 111.589 38.6654 111.606 38.7309C111.542 39.0883 111.526 39.4527 111.558 39.8144C111.558 40.746 111.537 41.6776 111.558 42.6092C111.513 43.4787 111.112 44.4172 110.286 44.7933C109.943 44.9831 109.391 45.0694 109.49 45.5731C112.607 45.5731 115.728 45.5973 118.849 45.5731C119.048 45.1142 118.458 45.0038 118.163 44.8347C117.34 44.4897 116.901 43.6098 116.822 42.7645C116.822 42.0261 116.822 41.2877 116.822 40.5528C116.853 39.4314 116.843 38.3065 116.822 37.1851C116.86 35.9119 116.839 34.6353 116.822 33.3621C116.874 31.6368 116.822 29.9116 116.822 28.1864C116.822 27.4963 116.784 26.7476 117.131 26.1161C117.382 25.6085 117.818 25.2179 118.348 25.0258C118.585 24.912 119.058 24.7394 118.822 24.3806C115.705 24.353 112.587 24.353 109.466 24.3806C109.398 24.8878 109.97 24.9637 110.296 25.1638C111.092 25.533 111.459 26.4267 111.548 27.2582C111.517 28.8558 111.548 30.4602 111.548 32.0612C111.526 32.4442 111.356 32.8034 111.075 33.0619C110.832 33.1924 110.564 33.2656 110.289 33.2758H104.319C104.07 33.2879 103.822 33.2325 103.602 33.1154C103.382 32.9982 103.197 32.8236 103.067 32.6099C102.895 31.7093 103.015 30.7915 102.978 29.8875V28.1623C102.885 27.0685 103.091 25.7159 104.161 25.1638C104.483 24.9534 105.19 24.8671 104.98 24.3323L104.991 24.3702Z" fill="#FAFAFA"/>
<path d="M122.629 31.8956C122.366 31.8927 122.104 31.9088 121.843 31.9439C121.581 31.9824 121.331 32.0816 121.113 32.2337C121.25 32.9687 121.377 33.7933 120.979 34.4731C120.825 34.7698 120.506 34.9009 120.293 35.1425C119.911 35.1783 119.542 35.3049 119.218 35.5118C118.894 35.7188 118.623 36.0001 118.428 36.3329C118.321 36.464 118.242 36.7745 118.51 36.7504C120.673 36.7612 122.834 36.9017 124.981 37.1713V32.182C124.207 32.019 123.42 31.9232 122.629 31.8956Z" fill="#FAFAFA"/>
<path d="M131.761 34.9458V38.931L131.805 38.8482C133.938 39.7002 135.979 40.7685 137.896 42.0364C137.221 40.5124 136.315 39.1029 135.211 37.858C134.211 36.7314 133.056 35.7543 131.781 34.9562L131.761 34.9458Z" fill="#FAFAFA"/>
<path d="M125.296 24.3667C124.267 24.3667 123.204 24.3667 122.162 24.4219C122.162 24.4978 122.162 24.6462 122.182 24.7186C123.002 25.1603 124.034 25.1534 124.744 25.8228C125.06 26.0948 125.301 26.4449 125.442 26.8387C125.584 27.2325 125.621 27.6564 125.55 28.069C125.55 30.367 125.55 32.6615 125.55 34.9699C125.55 36.2776 125.529 37.5853 125.55 38.893C125.523 39.4278 125.55 39.9592 125.55 40.4906C125.55 41.3152 125.55 42.1399 125.526 42.9611C125.224 44.0997 124.106 44.7449 123.026 44.9589C122.683 45.0865 122.079 45.0865 122.107 45.5869C122.486 45.6329 122.868 45.641 123.249 45.611H123.66C127.117 45.6697 130.574 45.611 134.031 45.6386C134.254 45.6386 134.717 45.7076 134.614 45.3315C134.192 44.9865 133.616 44.9865 133.125 44.7967C132.405 44.5806 131.788 44.1053 131.394 43.4614L131.277 43.4372L131.311 43.3199C131.188 42.6559 131.15 41.9787 131.198 41.3049V28.6521C131.236 27.9172 131.061 27.1132 131.479 26.4611C131.953 25.6572 132.851 25.2535 133.719 25.0602C134.062 24.9326 134.631 24.9326 134.662 24.4426C133.29 24.3253 131.918 24.4219 130.547 24.3908C128.804 24.4115 127.059 24.3908 125.317 24.3908L125.296 24.3667Z" fill="#FAFAFA"/>
<path d="M170.75 13.8672C169.44 14.0121 168.167 14.4262 166.871 14.6711C163.339 15.4647 159.807 16.2445 156.278 17.0485C156.072 17.0485 155.715 17.3314 155.996 17.5109C156.826 17.8214 157.79 17.8973 158.421 18.5943C159.275 19.3879 159.368 20.6093 159.326 21.6997C159.302 22.7348 159.326 23.7699 159.326 24.8051C159.306 26.4383 159.306 28.0715 159.326 29.7047C159.289 30.7088 159.326 31.7094 159.326 32.7169C157.78 31.4161 156.24 30.1015 154.69 28.811C153.102 27.4516 151.497 26.1093 149.889 24.7671C147.955 23.1247 146.003 21.4927 144.059 19.8502C142.001 20.1504 139.919 20.4679 137.845 20.7681C137.522 20.8716 136.847 20.7232 136.902 21.2408C137.423 21.7169 138.229 21.5858 138.832 21.9309C139.336 22.1835 139.75 22.5858 140.019 23.0833C140.288 23.5807 140.398 24.1493 140.334 24.7119C140.321 26.2899 140.321 27.8679 140.334 29.4459C140.334 30.7778 140.334 32.1131 140.334 33.4519C140.334 34.6756 140.334 35.9028 140.334 37.1335V40.3734C140.427 41.2345 140.291 42.1048 139.94 42.8957C139.516 43.6962 138.85 44.3394 138.037 44.7313C137.694 44.9315 137.251 45.0315 136.96 45.3352C136.816 45.7112 137.303 45.6802 137.536 45.6802C138.462 45.6595 139.391 45.7112 140.317 45.6526H140.403C142.845 45.7112 145.29 45.6526 147.732 45.6767C149.062 45.6491 150.4 45.7354 151.727 45.6353C151.974 45.3455 151.562 45.1592 151.357 45.0557C150.54 44.7508 149.81 44.2497 149.23 43.5961C148.593 42.7743 148.29 41.7394 148.383 40.7012V27.6103C149.049 28.1623 149.7 28.7317 150.365 29.2734C151.408 30.1682 152.457 31.0561 153.514 31.9371C155.437 33.5795 157.382 35.1978 159.302 36.8436V37.268C159.32 38.4654 159.498 39.655 159.831 40.8047C160.262 42.3743 161.03 43.8299 162.08 45.0695C163.267 46.4648 164.769 47.5544 166.46 48.2473C166.744 48.3612 167.2 48.4854 167.327 48.0955C167.451 46.5635 167.365 45.0246 167.368 43.4892C167.41 41.7847 167.368 40.0732 167.368 38.3687C167.368 36.5158 167.403 34.6595 167.337 32.8135C167.406 30.6536 167.361 28.4832 167.358 26.3198C167.392 23.8562 167.358 21.3926 167.358 18.929C167.42 17.1624 168.593 15.62 170.043 14.716C170.3 14.4779 170.846 14.3158 170.729 13.8741L170.75 13.8672Z" fill="#FAFAFA"/>
<path d="M40.1989 52.5015C38.1104 52.5015 36.0219 52.5015 33.9334 52.5015C33.9608 52.8879 34.4272 52.8465 34.6947 52.9949C35.0233 53.0755 35.3166 53.2621 35.5296 53.5264C35.7427 53.7906 35.8638 54.1178 35.8745 54.4579V59.8337C35.8686 60.1782 35.7498 60.5111 35.5364 60.7807C35.3231 61.0503 35.0272 61.2414 34.6947 61.3243C34.417 61.4554 33.9848 61.4312 33.9163 61.8142C36.0082 61.8591 38.1036 61.8142 40.1989 61.8349C40.4527 61.8004 40.7991 61.9246 40.9671 61.6589C40.6407 61.4975 40.3025 61.3614 39.9554 61.2518C39.6653 61.1436 39.4149 60.9488 39.2378 60.6935C39.0607 60.4382 38.9653 60.1346 38.9643 59.8233V54.7753C38.9356 54.5423 38.9572 54.3057 39.0276 54.0818C39.098 53.8579 39.2156 53.6519 39.3724 53.4779C39.7874 53.0018 40.4698 52.988 40.9774 52.6499C40.7819 52.4152 40.4596 52.5222 40.2024 52.4946L40.1989 52.5015Z" fill="#FAFAFA"/>
<path d="M53.1965 52.4809C51.6018 52.5465 50.0071 52.4809 48.4124 52.5223L48.4536 52.7569C49.1086 53.0088 49.8459 53.3918 49.9179 54.1854C49.9694 56.0693 49.9179 57.9567 49.9385 59.8476C49.9319 60.1825 49.8177 60.5063 49.6131 60.7705C49.4086 61.0348 49.1245 61.2255 48.8034 61.314C48.505 61.4451 48.0969 61.4486 47.946 61.7902C49.016 61.9006 50.0929 61.7902 51.1663 61.8419C51.4749 61.8109 51.8521 61.9282 52.0991 61.6901C51.7561 61.4106 51.2931 61.2519 51.0702 60.8378C50.8745 60.4342 50.7926 59.9842 50.8336 59.537V54.5442C51.1765 55.2067 51.3892 55.9451 51.7904 56.5766L51.7458 56.7146L51.931 56.9665C52.6169 58.6158 53.3782 60.2271 54.0812 61.873C54.4943 61.6166 54.8077 61.2258 54.9695 60.7654C55.8611 58.7503 56.755 56.7364 57.6512 54.7237V59.6785C57.6761 59.9422 57.6472 60.2083 57.5664 60.4604C57.4856 60.7125 57.3546 60.9454 57.1814 61.1449C56.9448 61.383 56.4955 61.4279 56.451 61.8143C58.2891 61.8488 60.1273 61.8143 61.962 61.835C62.2158 61.7936 62.5759 61.9351 62.7336 61.6521C62.2604 61.3761 61.7048 61.3347 61.2727 60.962C61.1038 60.826 60.9679 60.6532 60.8752 60.4565C60.7825 60.2598 60.7355 60.0445 60.7377 59.8269V54.458C60.7272 54.1499 60.8102 53.8459 60.9756 53.5864C61.141 53.3269 61.381 53.1243 61.6636 53.0053C61.9003 52.8742 62.2706 52.8363 62.3187 52.505C60.7651 52.4671 59.2116 52.505 57.6615 52.4809C56.9002 54.1475 56.1732 55.8382 55.4256 57.5151C54.6642 55.8347 53.9441 54.1405 53.1759 52.4636L53.1965 52.4809Z" fill="#FAFAFA"/>
<path d="M70.7621 52.5015C70.5507 52.4846 70.3389 52.5289 70.1517 52.6292C70.4095 52.8095 70.6868 52.96 70.9782 53.0778C71.2315 53.2102 71.4426 53.412 71.587 53.6598C71.7314 53.9076 71.8033 54.1915 71.7944 54.4786V59.8475C71.7864 60.1881 71.6687 60.5169 71.4591 60.7845C71.2494 61.052 70.9591 61.2439 70.6318 61.3312C70.3506 61.4692 69.8808 61.4382 69.8396 61.835C72.1693 61.8511 74.5002 61.8511 76.8321 61.835C76.8081 61.4899 76.4206 61.4899 76.1703 61.3588C75.8532 61.2932 75.5626 61.1347 75.3349 60.9033C75.1073 60.6718 74.9529 60.3776 74.8911 60.058C74.85 59.4265 74.8911 58.7951 74.874 58.1568C75.9028 58.1568 76.9762 58.2051 77.9433 57.8117C78.7972 57.4667 79.634 56.8905 79.9563 55.9934C80.079 55.6124 80.093 55.2044 79.9966 54.8158C79.9002 54.4273 79.6973 54.0737 79.411 53.7954C78.5331 52.8914 77.2368 52.5119 76.0057 52.4946H70.9782L70.7621 52.5015ZM74.8774 53.1571C75.3168 53.1889 75.7361 53.3545 76.0798 53.6319C76.4234 53.9092 76.6751 54.2852 76.8013 54.7098C76.915 55.1173 76.9108 55.5489 76.7894 55.9541C76.6679 56.3593 76.4341 56.7212 76.1154 56.9974C75.9295 57.0983 75.7518 57.2136 75.5838 57.3425C75.3531 57.4215 75.1154 57.4781 74.874 57.5116V53.1571H74.8774Z" fill="#FAFAFA"/>
<path d="M92.1174 52.2842C92.2545 52.5913 92.3917 52.9053 92.522 53.2227C92.1619 54.0025 91.8156 54.7892 91.4761 55.5828C91.4109 55.7312 91.3423 55.8795 91.2737 56.0279C90.6221 57.484 89.9877 58.9435 89.3361 60.3962C89.2444 60.6161 89.1065 60.8136 88.9319 60.975C88.7573 61.1363 88.55 61.2579 88.3244 61.3312C88.0432 61.4658 87.6043 61.4451 87.5254 61.8246C88.6605 61.8729 89.7991 61.8246 90.9308 61.8488C91.188 61.8143 91.5344 61.942 91.7024 61.6728C91.2634 61.3519 90.4438 61.4209 90.3306 60.7688C90.3581 60.0546 90.8039 59.4266 91.0611 58.7745C92.3746 58.7986 93.6846 58.7745 94.998 58.7745C95.2553 59.3164 95.4843 59.8715 95.6839 60.4376C95.7112 60.5198 95.722 60.6066 95.7157 60.6931C95.7094 60.7795 95.6861 60.8638 95.6472 60.9412C95.6083 61.0185 95.5545 61.0873 95.489 61.1436C95.4235 61.1999 95.3475 61.2426 95.2655 61.2691C94.9569 61.4347 94.4596 61.3899 94.3739 61.8108C96.4315 61.8108 98.52 61.8419 100.591 61.7936C100.502 61.4209 100.063 61.4486 99.7786 61.3002C99.5342 61.2166 99.3121 61.0777 99.1295 60.894C98.947 60.7103 98.8088 60.4869 98.7258 60.2409C97.5529 57.5818 96.3755 54.9203 95.1935 52.2566H92.1071L92.1174 52.2842ZM93.0193 54.3234C93.5406 55.5103 94.0687 56.687 94.5865 57.8739H91.4486C91.9699 56.687 92.4946 55.4931 93.0193 54.3234Z" fill="#FAFAFA"/>
<path d="M113.475 52.505C112.422 52.4871 111.384 52.7566 110.471 53.2848C109.491 53.7915 108.739 54.6554 108.369 55.7004C108 56.7454 108.04 57.8929 108.482 58.909L108.63 59.1126C109.453 60.7412 111.246 61.7073 113.026 61.8212C114.569 61.9247 116.277 61.5555 117.347 60.3513C117.721 59.8958 118.122 59.3644 118.095 58.7434C117.721 59.1125 117.495 59.6163 117.066 59.9303C116.411 60.4412 115.595 60.6983 114.767 60.6546C113.939 60.6109 113.155 60.2693 112.556 59.6922C110.979 58.1775 111.185 55.2067 112.968 53.9507C113.536 53.5719 114.215 53.3996 114.894 53.4624C115.572 53.5251 116.209 53.8192 116.699 54.2958C117.148 54.7029 117.385 55.2757 117.728 55.7553C117.854 54.848 117.821 53.9255 117.632 53.0294C117.268 53.057 116.922 53.1571 116.548 53.1675C116.126 53.0812 115.735 52.8811 115.324 52.7603C114.723 52.5868 114.101 52.5008 113.475 52.505Z" fill="#FAFAFA"/>
<path d="M126.356 52.5051V55.3207C126.538 55.3414 126.719 55.3207 126.764 55.1067C126.963 54.6685 127.131 54.1786 127.556 53.9163C128.283 53.3815 129.23 53.592 130.067 53.5713V59.8718C130.056 60.2192 129.932 60.5536 129.714 60.8231C129.496 61.0925 129.196 61.2821 128.859 61.3624C128.592 61.4866 128.174 61.4797 128.095 61.8385C130.444 61.8661 132.8 61.9179 135.149 61.8144C134.83 61.3106 134.086 61.4383 133.688 61.0104C132.796 60.2755 133.283 59.0057 133.129 58.0224V57.7463C133.191 56.3662 133.129 54.9618 133.156 53.5713C134.058 53.6024 135.122 53.385 135.838 54.0923C136.298 54.4374 136.236 55.1689 136.761 55.4276C136.939 54.4788 136.798 53.4885 136.84 52.5224L126.356 52.5051Z" fill="#FAFAFA"/>
</svg>
