<svg width="38" height="39" viewBox="0 0 38 39" fill="none" xmlns="http://www.w3.org/2000/svg">
<g clip-path="url(#clip0_90_31)">
<path d="M37.488 19.6891C37.198 20.4991 34.628 24.0091 33.138 24.7591C28.968 14.6591 25.548 10.3191 18.888 3.29909C13.698 8.48909 11.368 11.6891 10.968 14.6191C13.928 11.9591 15.688 10.6291 18.888 8.37909C22.328 11.7091 24.038 13.8691 26.808 18.1391C25.288 20.1891 21.728 22.7291 19.678 23.9891C19.048 23.4991 18.698 23.0591 18.098 22.0391C19.908 20.5291 20.858 19.5991 22.448 17.7491C21.728 15.7291 20.898 14.7191 18.888 13.0691C15.108 14.8491 12.808 17.1091 9.38802 20.4891C7.30802 17.2991 6.58802 15.5091 6.21802 12.2891C10.568 7.14909 13.418 4.66909 18.888 0.569092C24.518 4.66909 34.218 13.2591 37.498 19.6891H37.488Z" fill="#E3C348"/>
<path d="M0.278076 19.6891C0.568076 18.8791 3.13808 15.3691 4.62808 14.6191C8.79808 24.7191 12.2181 29.0591 18.8781 36.0791C24.0681 30.8891 26.3981 27.6891 26.7981 24.7591C23.8381 27.4191 22.0781 28.7491 18.8781 30.9991C15.4381 27.6691 13.7281 25.5091 10.9581 21.2391C12.4781 19.1891 16.0381 16.6491 18.0881 15.3891C18.7181 15.8791 19.0681 16.3191 19.6681 17.3391C17.8581 18.8491 16.9081 19.7791 15.3181 21.6291C16.0381 23.6491 16.8681 24.6591 18.8781 26.3091C22.6581 24.5291 24.9581 22.2691 28.3781 18.8891C30.4581 22.0791 31.1781 23.8691 31.5481 27.0891C27.1981 32.2091 24.3481 34.6991 18.8781 38.7991C13.2581 34.7191 3.55808 26.1291 0.278076 19.6891Z" fill="#E3C348"/>
</g>
<defs>
<clipPath id="clip0_90_31">
<rect width="37.21" height="38.25" fill="white" transform="translate(0.278076 0.569092)"/>
</clipPath>
</defs>
</svg>
