<svg width="21" height="21" viewBox="0 0 21 21" fill="none" xmlns="http://www.w3.org/2000/svg">
<path d="M19.8851 9.73853L18.0051 8.33853C16.0851 6.90853 14.3751 5.20853 12.9351 3.29853L11.3551 1.20853C11.1251 0.908525 10.7851 0.738525 10.4151 0.738525C10.0451 0.738525 9.6951 0.908525 9.4751 1.20853L7.8951 3.29853C6.4551 5.20853 4.7451 6.90853 2.8251 8.33853L0.945098 9.73853C0.645098 9.95853 0.475098 10.2985 0.475098 10.6785C0.475098 11.0585 0.645098 11.3985 0.945098 11.6285L2.9951 13.1685C4.9051 14.6085 6.6051 16.3085 8.0451 18.2285L9.4751 20.1485C9.6951 20.4485 10.0451 20.6185 10.4151 20.6185C10.7951 20.6185 11.1351 20.4485 11.3551 20.1485L12.8451 18.1685C14.2851 16.2485 15.9851 14.5485 17.8951 13.1185L19.8751 11.6285C20.1751 11.3985 20.3451 11.0585 20.3451 10.6785C20.3451 10.2985 20.1751 9.95853 19.8751 9.73853H19.8851ZM19.2851 10.8285L17.3051 12.3185C15.3151 13.8085 13.5451 15.5785 12.0551 17.5685L10.5651 19.5485C10.5151 19.6085 10.4551 19.6185 10.4251 19.6185C10.3951 19.6185 10.3251 19.6185 10.2851 19.5485L8.8551 17.6285C7.3651 15.6285 5.5951 13.8585 3.6051 12.3685L1.5551 10.8285C1.4951 10.7785 1.4851 10.7185 1.4851 10.6885C1.4851 10.6585 1.4851 10.5885 1.5551 10.5485L3.4351 9.14853C5.4351 7.65853 7.2051 5.89853 8.7051 3.90853L10.2851 1.81853C10.3351 1.75853 10.3951 1.74853 10.4251 1.74853C10.4551 1.74853 10.5251 1.74853 10.5651 1.81853L12.1451 3.90853C13.6451 5.89853 15.4151 7.65853 17.4151 9.14853L19.2951 10.5485C19.3551 10.5985 19.3651 10.6585 19.3651 10.6885C19.3651 10.7185 19.3651 10.7885 19.2951 10.8385L19.2851 10.8285Z" fill="#BDAA8A"/>
<path d="M14.1952 10.8984L13.3752 11.5084C12.5752 12.1084 11.8552 12.8284 11.2552 13.6284L10.6452 14.4484C10.5352 14.5984 10.3052 14.5984 10.1952 14.4484L9.60521 13.6584C9.00521 12.8584 8.29522 12.1384 7.48522 11.5384L6.64521 10.9084C6.49521 10.7984 6.49521 10.5684 6.64521 10.4584L7.41521 9.8784C8.22521 9.2784 8.93521 8.5684 9.54521 7.7684L10.1952 6.9084C10.3052 6.7584 10.5252 6.7584 10.6452 6.9084L11.2952 7.7684C11.8952 8.5684 12.6152 9.2784 13.4252 9.8784L14.1952 10.4584C14.3452 10.5684 14.3452 10.7984 14.1952 10.9084V10.8984Z" fill="#BDAA8A"/>
</svg>
