<svg width="33" height="49" viewBox="0 0 33 49" fill="none" xmlns="http://www.w3.org/2000/svg">
<g clip-path="url(#clip0_64_111)">
<path d="M23.38 11.2341V0.474121C23.38 0.474121 7.84003 20.6741 0.350035 24.1041C-0.0699649 24.2941 -0.129965 24.8641 0.230035 25.1441C3.77004 27.9341 17.31 38.9541 23.37 48.4741V37.8041C23.37 37.5941 23.29 37.3941 23.15 37.2341C21.71 35.6741 14.61 26.9641 12.07 24.9141C11.74 24.6441 11.72 24.1641 12.03 23.8741C14.44 21.6441 21.78 13.8841 23.23 11.7241C23.33 11.5741 23.38 11.4141 23.38 11.2341Z" fill="#BDAA8A"/>
<path d="M14.1999 25.0242L16.1799 26.5142C18.1299 27.9842 19.8699 29.7142 21.3299 31.6642L22.8199 33.6442C23.0899 34.0042 23.6399 34.0042 23.9099 33.6442L25.3399 31.7242C26.7999 29.7642 28.5299 28.0242 30.4899 26.5642L32.5399 25.0242C32.8999 24.7542 32.8999 24.2042 32.5399 23.9342L30.6599 22.5342C28.6999 21.0742 26.9599 19.3442 25.4899 17.3942L23.9099 15.3042C23.6399 14.9442 23.0999 14.9442 22.8199 15.3042L21.2399 17.3942C19.7699 19.3442 18.0299 21.0742 16.0699 22.5342L14.1899 23.9342C13.8299 24.2042 13.8299 24.7542 14.1899 25.0242H14.1999ZM20.5399 24.3142L21.1199 23.8842C21.7199 23.4342 22.2599 22.9042 22.7099 22.2942L23.1999 21.6542C23.2799 21.5442 23.4499 21.5442 23.5399 21.6542L24.0299 22.3042C24.4799 22.9042 25.0199 23.4442 25.6199 23.8942L26.1999 24.3242C26.3099 24.4042 26.3099 24.5742 26.1999 24.6642L25.5699 25.1442C24.9699 25.5942 24.4299 26.1342 23.9799 26.7342L23.5399 27.3242C23.4599 27.4342 23.2899 27.4342 23.1999 27.3242L22.7399 26.7142C22.2899 26.1142 21.7499 25.5742 21.1499 25.1242L20.5399 24.6642C20.4299 24.5842 20.4299 24.4142 20.5399 24.3242V24.3142Z" fill="#BDAA8A" fill-opacity="0.8"/>
</g>
<defs>
<clipPath id="clip0_64_111">
<rect width="32.82" height="48" fill="white" transform="translate(0 0.474121)"/>
</clipPath>
</defs>
</svg>
