<svg width="48" height="49" viewBox="0 0 48 49" fill="none" xmlns="http://www.w3.org/2000/svg">
<g clip-path="url(#clip0_74_167)">
<path d="M9.14508 6.56838C9.14508 4.99054 9.77187 3.47733 10.8876 2.36163C12.0033 1.24593 13.5165 0.619141 15.0943 0.619141L32.942 0.619141C34.5199 0.619141 36.0331 1.24593 37.1488 2.36163C38.2645 3.47733 38.8913 4.99054 38.8913 6.56838V42.2638C38.8913 43.8416 38.2645 45.3548 37.1488 46.4705C36.0331 47.5862 34.5199 48.213 32.942 48.213H15.0943C13.5165 48.213 12.0033 47.5862 10.8876 46.4705C9.77187 45.3548 9.14508 43.8416 9.14508 42.2638V6.56838ZM26.9928 39.2892C26.9928 38.5003 26.6794 37.7437 26.1215 37.1858C25.5637 36.628 24.8071 36.3146 24.0182 36.3146C23.2293 36.3146 22.4727 36.628 21.9148 37.1858C21.357 37.7437 21.0436 38.5003 21.0436 39.2892C21.0436 40.0781 21.357 40.8347 21.9148 41.3926C22.4727 41.9504 23.2293 42.2638 24.0182 42.2638C24.8071 42.2638 25.5637 41.9504 26.1215 41.3926C26.6794 40.8347 26.9928 40.0781 26.9928 39.2892Z" fill="#898989"/>
</g>
<defs>
<clipPath id="clip0_74_167">
<rect width="47.5939" height="47.5939" fill="white" transform="translate(0.221252 0.619141)"/>
</clipPath>
</defs>
</svg>
