<svg width="48" height="49" viewBox="0 0 48 49" fill="none" xmlns="http://www.w3.org/2000/svg">
<g clip-path="url(#clip0_74_158)">
<path d="M27.9901 24.431C27.9901 11.4021 28.0198 0.717303 28.0585 0.687557C28.0882 0.648887 30.0604 0.619141 32.4252 0.619141C35.855 0.619141 36.9169 0.648887 37.61 0.767872C42.7561 1.65431 46.6677 5.52726 47.6434 10.6615C47.7802 11.3813 47.801 13.0679 47.801 24.3744C47.801 36.4514 47.8159 37.8703 47.4352 39.1761C47.3697 39.4022 47.2924 39.6223 47.1972 39.896C46.445 42.0878 45.0896 44.0229 43.2868 45.4788C41.4841 46.9348 39.3071 47.8526 37.0061 48.1268C36.0632 48.2249 28.4125 48.2636 28.1477 48.1654C27.999 48.106 27.9901 45.9285 27.9901 24.431ZM41.8964 25.2311C41.638 24.4869 41.2011 23.8173 40.6239 23.2811C40.0468 22.7449 39.3469 22.3584 38.5857 22.1554C37.3988 21.8485 36.1395 22.0084 35.0671 22.6022C33.9946 23.196 33.1907 24.1784 32.8209 25.3471C32.5755 26.2563 32.5612 27.2123 32.7792 28.1284C33.1411 29.3165 33.9452 30.3205 35.0256 30.9331C36.1059 31.5458 37.3802 31.7206 38.5857 31.4213C40.1027 31.0168 41.2866 29.9221 41.8875 28.3634C42.2147 27.5156 42.2236 26.1562 41.8964 25.2311ZM11.243 10.486C10.6243 10.6049 9.67832 11.0779 9.17561 11.5211C8.14045 12.4165 7.62881 13.6896 7.70615 15.1858C7.74482 15.9652 7.79539 16.1734 8.1107 16.804C8.57177 17.7589 9.2708 18.4579 10.2286 18.9309C10.889 19.2581 11.0556 19.2968 11.9152 19.3265C12.6916 19.3563 12.9683 19.3265 13.4918 19.148C15.6305 18.4282 16.9215 16.3519 16.5556 14.2221C16.1332 11.6877 13.7298 9.99216 11.243 10.486Z" fill="#898989"/>
<path d="M10.3953 0.776519C8.08319 1.18576 5.9363 2.24744 4.20764 3.83644C2.47898 5.42543 1.24062 7.4755 0.638511 9.74499C0.207192 11.4108 0.177445 12.3865 0.222065 25.3082C0.251811 37.1769 0.263709 37.4506 0.460034 38.3668C1.55469 43.3046 5.06474 46.8266 10.0502 47.9897C10.7046 48.1384 11.5286 48.1681 16.8621 48.1979C22.383 48.2336 22.9541 48.2247 23.0999 48.0789C23.2486 47.9302 23.2575 46.0264 23.2575 24.4604C23.2575 8.47483 23.2278 0.943097 23.1593 0.806265C23.0612 0.627788 22.8916 0.618864 17.1209 0.627788C12.4269 0.639686 11.017 0.669432 10.3982 0.776519H10.3953ZM19.3191 44.3993L15.3034 44.3517C11.6089 44.313 11.2133 44.2922 10.4756 44.1048C8.94008 43.7258 7.54362 42.9189 6.44841 41.7779C5.3532 40.6369 4.60419 39.2085 4.28837 37.6588C4.06825 36.6623 4.06825 12.1396 4.27647 11.1639C4.5638 9.80755 5.1794 8.54239 6.06932 7.47925C6.95924 6.41612 8.09632 5.58747 9.38091 5.06592C10.6838 4.54239 11.2847 4.48289 15.5027 4.471L19.3161 4.46207V44.3993H19.3191Z" fill="#898989"/>
</g>
<defs>
<clipPath id="clip0_74_158">
<rect width="47.5939" height="47.5939" fill="white" transform="translate(0.207153 0.619141)"/>
</clipPath>
</defs>
</svg>
