<svg width="63" height="63" viewBox="0 0 63 63" fill="none" xmlns="http://www.w3.org/2000/svg">
<g clip-path="url(#clip0_74_165)">
<path d="M61.5219 44.7609C60.3116 46.2884 57.3494 47.375 57.3494 47.375L35.323 55.2869V49.4516L51.5335 43.6782C53.3742 43.0208 53.6564 42.085 52.1599 41.5977C50.6673 41.1066 47.9642 41.2497 46.1274 41.9071L35.323 45.7122V39.6565L35.9456 39.4477C35.9456 39.4477 39.0662 38.3417 43.4553 37.8545C47.8443 37.3711 53.2195 37.9202 57.4384 39.5173C62.1948 41.0254 62.7284 43.2373 61.5219 44.7609ZM37.4189 34.8305V19.9038C37.4189 18.1521 37.0979 16.5395 35.4545 16.0832C34.1938 15.6772 33.4127 16.8489 33.4127 18.5968V55.9675L23.3353 52.7695V8.21387C27.6199 9.01047 33.8612 10.8898 37.2178 12.0229C45.7523 14.9502 48.6448 18.5968 48.6448 26.8142C48.6448 34.8227 43.7028 37.8583 37.4189 34.8266V34.8305ZM4.84325 48.8484C-0.0369077 47.464 -0.848978 44.6024 1.37455 42.955C3.4318 41.4314 6.92757 40.2868 6.92757 40.2868L21.3786 35.1437V41.0022L10.9763 44.7261C9.14336 45.3835 8.86107 46.3155 10.3537 46.8066C11.8464 47.2938 14.5494 47.1546 16.3863 46.4972L21.3747 44.6836V49.9272L20.3809 50.0935C15.1767 50.9367 9.84586 50.5082 4.84325 48.8445V48.8484Z" fill="#898989"/>
</g>
<defs>
<clipPath id="clip0_74_165">
<rect width="61.8721" height="61.8721" fill="white" transform="translate(0.198975 0.47998)"/>
</clipPath>
</defs>
</svg>
