<svg width="33" height="49" viewBox="0 0 33 49" fill="none" xmlns="http://www.w3.org/2000/svg">
<g clip-path="url(#clip0_64_108)">
<path d="M9.43993 11.2341V0.474121C9.43993 0.474121 24.9799 20.6741 32.4599 24.1041C32.8799 24.2941 32.9399 24.8641 32.5799 25.1441C29.0399 27.9341 15.4999 38.9541 9.43993 48.4741V37.8041C9.43993 37.5941 9.51993 37.3941 9.65993 37.2341C11.0999 35.6741 18.1999 26.9641 20.7399 24.9141C21.0699 24.6441 21.0899 24.1641 20.7799 23.8741C18.3699 21.6441 11.0299 13.8841 9.57993 11.7241C9.47993 11.5741 9.42993 11.4141 9.42993 11.2341H9.43993Z" fill="#BDAA8A"/>
<path d="M18.6201 23.9342L16.7401 22.5342C14.7801 21.0742 13.0401 19.3442 11.5701 17.3942L9.9901 15.3042C9.7201 14.9442 9.1801 14.9442 8.9001 15.3042L7.3201 17.3942C5.8501 19.3442 4.1101 21.0742 2.1501 22.5342L0.270101 23.9342C-0.0898993 24.2042 -0.0998993 24.7542 0.270101 25.0242L2.3201 26.5642C4.2701 28.0342 6.0001 29.7742 7.4701 31.7242L8.9001 33.6442C9.1701 34.0042 9.7201 34.0042 9.9901 33.6442L11.4801 31.6642C12.9501 29.7142 14.6801 27.9742 16.6301 26.5142L18.6101 25.0242C18.9701 24.7542 18.9701 24.2042 18.6101 23.9342H18.6201ZM12.2801 24.6442L11.6701 25.1042C11.0701 25.5542 10.5301 26.0942 10.0801 26.6942L9.6201 27.3042C9.5401 27.4142 9.3701 27.4142 9.2801 27.3042L8.8401 26.7142C8.3901 26.1142 7.8501 25.5742 7.2501 25.1242L6.6201 24.6442C6.5101 24.5642 6.5101 24.3942 6.6201 24.3042L7.2001 23.8742C7.8001 23.4242 8.3401 22.8942 8.7901 22.2842L9.2801 21.6342C9.3601 21.5242 9.5301 21.5242 9.6201 21.6342L10.1101 22.2742C10.5601 22.8742 11.1001 23.4142 11.7001 23.8642L12.2801 24.2942C12.3901 24.3742 12.3901 24.5442 12.2801 24.6342V24.6442Z" fill="#BDAA8A" fill-opacity="0.8"/>
</g>
<defs>
<clipPath id="clip0_64_108">
<rect width="32.82" height="48" fill="white" transform="translate(0 0.474121)"/>
</clipPath>
</defs>
</svg>
