<svg width="20" height="22" viewBox="0 0 20 22" fill="none" xmlns="http://www.w3.org/2000/svg">
<path d="M15.9849 7C17.6417 7 18.9849 5.65685 18.9849 4C18.9849 2.34315 17.6417 1 15.9849 1C14.328 1 12.9849 2.34315 12.9849 4C12.9849 5.65685 14.328 7 15.9849 7Z" stroke="#FAFAFA" stroke-linecap="round" stroke-linejoin="round"/>
<path d="M3.98486 14C5.64172 14 6.98486 12.6569 6.98486 11C6.98486 9.34315 5.64172 8 3.98486 8C2.32801 8 0.984863 9.34315 0.984863 11C0.984863 12.6569 2.32801 14 3.98486 14Z" stroke="#FAFAFA" stroke-linecap="round" stroke-linejoin="round"/>
<path d="M15.9849 21C17.6417 21 18.9849 19.6569 18.9849 18C18.9849 16.3431 17.6417 15 15.9849 15C14.328 15 12.9849 16.3431 12.9849 18C12.9849 19.6569 14.328 21 15.9849 21Z" stroke="#FAFAFA" stroke-linecap="round" stroke-linejoin="round"/>
<path d="M6.57495 12.51L13.405 16.49" stroke="#FAFAFA" stroke-linecap="round" stroke-linejoin="round"/>
<path d="M13.395 5.51001L6.57495 9.49001" stroke="#FAFAFA" stroke-linecap="round" stroke-linejoin="round"/>
</svg>
