<svg width="107" height="22" viewBox="0 0 107 22" fill="none" xmlns="http://www.w3.org/2000/svg">
<path d="M20.5593 9.5039L18.6793 8.10391C18.6793 8.1039 18.6793 8.1039 18.6793 8.1039C16.7784 6.68808 15.0853 5.00492 13.6596 3.11391L13.6594 3.11364L12.0794 1.02364L12.0784 1.0223C11.8023 0.662158 11.3897 0.454407 10.94 0.454407C10.4942 0.454407 10.0685 0.65924 9.79953 1.02503L8.22057 3.11364L8.22038 3.11391C6.79469 5.00492 5.10163 6.68808 3.20068 8.1039C3.20068 8.1039 3.20067 8.1039 3.20067 8.10391L1.32216 9.50281C1.32189 9.50301 1.32161 9.50321 1.32134 9.5034C0.956022 9.7717 0.75 10.1871 0.75 10.6444C0.75 11.103 0.956828 11.516 1.31789 11.7928L1.31984 11.7943L3.3695 13.334C5.26079 14.7599 6.94401 16.4431 8.36977 18.3441C8.36985 18.3442 8.36992 18.3443 8.37 18.3444L9.7984 20.2622C9.7986 20.2625 9.7988 20.2628 9.799 20.2631C10.068 20.6293 10.4939 20.8344 10.94 20.8344C11.3971 20.8344 11.8123 20.6286 12.0806 20.2636C12.081 20.2631 12.0813 20.2627 12.0816 20.2622L13.5698 18.2847L13.57 18.2844C14.9958 16.3833 16.679 14.7002 18.5698 13.2845L18.5703 13.2842L20.5503 11.7942L20.5521 11.7928C20.9132 11.516 21.12 11.103 21.12 10.6444C21.12 10.3965 21.0595 10.1609 20.9458 9.95441H21.1643L20.5593 9.5039ZM12.3799 17.3846L10.9503 19.2843L9.5805 17.4451L9.58048 17.445C8.07603 15.4256 6.28894 13.6386 4.27984 12.1343L2.31022 10.6547L4.10932 9.31492L4.10936 9.31489C6.1284 7.8107 7.91533 6.03387 9.42964 4.02489L10.95 2.01378L12.4704 4.02489C13.9847 6.03387 15.7716 7.8107 17.7906 9.31489L17.7907 9.31492L19.5848 10.651L17.6802 12.0843C15.6711 13.5886 13.8842 15.3755 12.3799 17.3846Z" fill="#BDAA8A" stroke="#BDAA8A" stroke-width="0.5"/>
<path d="M63.0389 9.5039L61.1589 8.10391C61.1589 8.1039 61.1589 8.1039 61.1589 8.1039C59.258 6.68808 57.5649 5.00492 56.1392 3.11391L56.139 3.11364L54.559 1.02364L54.558 1.0223C54.2819 0.662158 53.8693 0.454407 53.4196 0.454407C52.9738 0.454407 52.5482 0.65924 52.2791 1.02503L50.7002 3.11364L50.7 3.11391C49.2743 5.00492 47.5812 6.68808 45.6803 8.1039C45.6803 8.1039 45.6803 8.1039 45.6803 8.10391L43.8018 9.50281C43.8015 9.50301 43.8012 9.50321 43.801 9.5034C43.4356 9.7717 43.2296 10.1871 43.2296 10.6444C43.2296 11.103 43.4364 11.516 43.7975 11.7928L43.7995 11.7943L45.8491 13.334C47.7404 14.7599 49.4236 16.4431 50.8494 18.3441C50.8495 18.3442 50.8495 18.3443 50.8496 18.3444L52.278 20.2622C52.2782 20.2625 52.2784 20.2628 52.2786 20.2631C52.5476 20.6293 52.9735 20.8344 53.4196 20.8344C53.8767 20.8344 54.292 20.6286 54.5603 20.2636C54.5606 20.2631 54.5609 20.2627 54.5612 20.2622L56.0494 18.2847L56.0496 18.2844C57.4754 16.3833 59.1586 14.7002 61.0494 13.2845L61.0499 13.2842L63.0299 11.7942L63.0317 11.7928C63.3928 11.516 63.5996 11.103 63.5996 10.6444C63.5996 10.3965 63.5391 10.1609 63.4254 9.95441H63.6439L63.0389 9.5039ZM54.8595 17.3846L53.4299 19.2843L52.0601 17.4451L52.0601 17.445C50.5556 15.4256 48.7686 13.6386 46.7595 12.1343L44.7898 10.6547L46.5889 9.31492L46.589 9.31489C48.608 7.8107 50.3949 6.03387 51.9093 4.02489L53.4296 2.01378L54.95 4.02489C56.4643 6.03387 58.2512 7.8107 60.2703 9.31489L60.2703 9.31492L62.0644 10.651L60.1598 12.0843C58.1507 13.5886 56.3638 15.3755 54.8595 17.3846Z" fill="#BDAA8A" stroke="#BDAA8A" stroke-width="0.5"/>
<path d="M105.519 9.5039L103.639 8.10391C103.639 8.1039 103.639 8.1039 103.639 8.1039C101.738 6.68808 100.045 5.00492 98.6193 3.11391L98.6191 3.11364L97.0391 1.02364L97.0381 1.0223C96.7619 0.662158 96.3494 0.454407 95.8997 0.454407C95.4538 0.454407 95.0282 0.65924 94.7592 1.02503L93.1802 3.11364L93.18 3.11391C91.7543 5.00492 90.0613 6.68808 88.1603 8.1039C88.1603 8.1039 88.1603 8.1039 88.1603 8.10391L86.2818 9.50281C86.2815 9.50301 86.2813 9.50321 86.281 9.5034C85.9157 9.7717 85.7097 10.1871 85.7097 10.6444C85.7097 11.103 85.9165 11.516 86.2775 11.7928L86.2795 11.7943L88.3292 13.334C90.2204 14.7599 91.9037 16.4431 93.3294 18.3441C93.3295 18.3442 93.3296 18.3443 93.3297 18.3444L94.7581 20.2622C94.7583 20.2625 94.7585 20.2628 94.7587 20.2631C95.0276 20.6293 95.4535 20.8344 95.8997 20.8344C96.3567 20.8344 96.772 20.6286 97.0403 20.2636C97.0406 20.2631 97.0409 20.2627 97.0413 20.2622L98.5294 18.2847L98.5297 18.2844C99.9555 16.3833 101.639 14.7002 103.529 13.2845L103.53 13.2842L105.51 11.7942L105.512 11.7928C105.873 11.516 106.08 11.103 106.08 10.6444C106.08 10.3965 106.019 10.1609 105.905 9.95441H106.124L105.519 9.5039ZM97.3395 17.3846L95.91 19.2843L94.5402 17.4451L94.5401 17.445C93.0357 15.4256 91.2486 13.6386 89.2395 12.1343L87.2699 10.6547L89.069 9.31492L89.069 9.31489C91.0881 7.8107 92.875 6.03387 94.3893 4.02489L95.9097 2.01378L97.43 4.02489C98.9443 6.03387 100.731 7.8107 102.75 9.31489L102.75 9.31492L104.544 10.651L102.64 12.0843C100.631 13.5886 98.8438 15.3755 97.3395 17.3846Z" fill="#BDAA8A" stroke="#BDAA8A" stroke-width="0.5"/>
</svg>
