<svg width="15" height="15" viewBox="0 0 15 15" fill="none" xmlns="http://www.w3.org/2000/svg">
<path d="M13.8579 7.83787L12.4512 8.88428C11.0789 9.91354 9.84378 11.1487 8.81452 12.521L7.76811 13.9277C7.57941 14.185 7.18486 14.185 6.99616 13.9277L5.98405 12.5725C4.95479 11.2001 3.73683 9.96501 2.34733 8.93575L0.906365 7.85502C0.64905 7.66632 0.64905 7.27177 0.906365 7.08307L2.22725 6.08812C3.61675 5.05886 4.83471 3.8409 5.88113 2.46855L6.99616 0.993279C7.18486 0.735964 7.56226 0.735964 7.76811 0.993279L8.88314 2.46855C9.9124 3.8409 11.1475 5.05886 12.537 6.08812L13.8579 7.08307C14.1152 7.27177 14.1152 7.66632 13.8579 7.85502V7.83787Z" fill="#985AEA"/>
</svg>
