<svg width="22" height="22" viewBox="0 0 22 22" fill="none" xmlns="http://www.w3.org/2000/svg">
<path d="M20.5593 9.5039L18.6793 8.10391C18.6793 8.1039 18.6793 8.1039 18.6793 8.1039C16.7784 6.68808 15.0853 5.00492 13.6596 3.11391L13.6594 3.11364L12.0794 1.02364L12.0784 1.0223C11.8023 0.662158 11.3897 0.454407 10.94 0.454407C10.4942 0.454407 10.0685 0.65924 9.79953 1.02503L8.22057 3.11364L8.22038 3.11391C6.79469 5.00492 5.10163 6.68808 3.20068 8.1039C3.20068 8.1039 3.20067 8.1039 3.20067 8.10391L1.32216 9.50281C1.32189 9.50301 1.32161 9.50321 1.32134 9.5034C0.956022 9.7717 0.75 10.1871 0.75 10.6444C0.75 11.103 0.956828 11.516 1.31789 11.7928L1.31984 11.7943L3.3695 13.334C5.26079 14.7599 6.94401 16.4431 8.36977 18.3441C8.36985 18.3442 8.36992 18.3443 8.37 18.3444L9.7984 20.2622C9.7986 20.2625 9.7988 20.2628 9.799 20.2631C10.068 20.6293 10.4939 20.8344 10.94 20.8344C11.3971 20.8344 11.8123 20.6286 12.0806 20.2636C12.081 20.2631 12.0813 20.2627 12.0816 20.2622L13.5698 18.2847L13.57 18.2844C14.9958 16.3833 16.679 14.7002 18.5698 13.2845L18.5703 13.2842L20.5503 11.7942L20.5521 11.7928C20.9132 11.516 21.12 11.103 21.12 10.6444C21.12 10.3965 21.0595 10.1609 20.9458 9.95441H21.1643L20.5593 9.5039ZM12.3799 17.3846L10.9503 19.2843L9.5805 17.4451L9.58048 17.445C8.07603 15.4256 6.28894 13.6386 4.27984 12.1343L2.31022 10.6547L4.10932 9.31492L4.10936 9.31489C6.1284 7.8107 7.91533 6.03387 9.42964 4.02489L10.95 2.01378L12.4704 4.02489C13.9847 6.03387 15.7716 7.8107 17.7906 9.31489L17.7907 9.31492L19.5848 10.651L17.6802 12.0843C15.6711 13.5886 13.8842 15.3755 12.3799 17.3846Z" fill="#BDAA8A" stroke="#BDAA8A" stroke-width="0.5"/>
</svg>
