<svg width="107" height="22" viewBox="0 0 107 22" fill="none" xmlns="http://www.w3.org/2000/svg">
<path d="M20.4293 9.89885L18.5493 8.49887C18.5493 8.49886 18.5493 8.49886 18.5493 8.49885C16.6484 7.08304 14.9553 5.39988 13.5296 3.50886L13.5294 3.5086L11.9494 1.4186L11.9484 1.41726C11.6723 1.05712 11.2597 0.849365 10.81 0.849365C10.3642 0.849365 9.93854 1.0542 9.66952 1.41999L8.09057 3.5086L8.09037 3.50886C6.66469 5.39988 4.97163 7.08304 3.07068 8.49885C3.07067 8.49886 3.07067 8.49886 3.07066 8.49887L1.19215 9.89776C1.19188 9.89796 1.19161 9.89816 1.19134 9.89836C0.826017 10.1667 0.619995 10.5821 0.619995 11.0394C0.619995 11.4979 0.826823 11.911 1.18789 12.1878L1.18984 12.1892L3.23949 13.729C5.13078 15.1549 6.81401 16.8381 8.23977 18.7391C8.23984 18.7392 8.23992 18.7393 8.24 18.7394L9.66839 20.6572C9.66859 20.6575 9.66879 20.6578 9.66899 20.658C9.93798 21.0243 10.3639 21.2294 10.81 21.2294C11.2671 21.2294 11.6823 21.0235 11.9506 20.6585C11.951 20.6581 11.9513 20.6576 11.9516 20.6572L13.4398 18.6797L13.44 18.6794C14.8658 16.7783 16.549 15.0952 18.4398 13.6795L18.4403 13.6791L20.4203 12.1891L20.4221 12.1878C20.7832 11.911 20.99 11.4979 20.99 11.0394C20.99 10.7915 20.9295 10.5559 20.8158 10.3494H21.0343L20.4293 9.89885ZM12.2499 17.7795L10.8203 19.6792L9.4505 17.84L9.45048 17.84C7.94602 15.8206 6.15893 14.0335 4.14983 12.5292L2.18022 11.0496L3.97931 9.70988L3.97935 9.70985C5.99839 8.20566 7.78533 6.42883 9.29963 4.41985L10.82 2.40874L12.3404 4.41985C13.8547 6.42883 15.6416 8.20566 17.6606 9.70985L17.6607 9.70988L19.4548 11.0459L17.5502 12.4792C15.5411 13.9835 13.7542 15.7705 12.2499 17.7795Z" fill="#FAFAFA" stroke="#FAFAFA" stroke-width="0.5"/>
<path d="M62.9089 9.89885L61.0289 8.49887C61.0289 8.49886 61.0289 8.49886 61.0289 8.49885C59.128 7.08304 57.4349 5.39988 56.0092 3.50886L56.009 3.5086L54.429 1.4186L54.428 1.41726C54.1519 1.05712 53.7393 0.849365 53.2896 0.849365C52.8438 0.849365 52.4182 1.0542 52.1491 1.41999L50.5702 3.5086L50.57 3.50886C49.1443 5.39988 47.4512 7.08304 45.5503 8.49885C45.5503 8.49886 45.5503 8.49886 45.5503 8.49887L43.6718 9.89776C43.6715 9.89796 43.6712 9.89816 43.671 9.89836C43.3056 10.1667 43.0996 10.5821 43.0996 11.0394C43.0996 11.4979 43.3064 11.911 43.6675 12.1878L43.6695 12.1892L45.7191 13.729C47.6104 15.1549 49.2936 16.8381 50.7194 18.7391C50.7195 18.7392 50.7195 18.7393 50.7196 18.7394L52.148 20.6572C52.1482 20.6575 52.1484 20.6578 52.1486 20.658C52.4176 21.0243 52.8435 21.2294 53.2896 21.2294C53.7467 21.2294 54.1619 21.0235 54.4303 20.6585C54.4306 20.6581 54.4309 20.6576 54.4312 20.6572L55.9194 18.6797L55.9196 18.6794C57.3454 16.7783 59.0286 15.0952 60.9194 13.6795L60.9199 13.6791L62.8999 12.1891L62.9017 12.1878C63.2628 11.911 63.4696 11.4979 63.4696 11.0394C63.4696 10.7915 63.4091 10.5559 63.2954 10.3494H63.5139L62.9089 9.89885ZM54.7295 17.7795L53.2999 19.6792L51.9301 17.84L51.9301 17.84C50.4256 15.8206 48.6385 14.0335 46.6294 12.5292L44.6598 11.0496L46.4589 9.70988L46.459 9.70985C48.478 8.20566 50.2649 6.42883 51.7792 4.41985L53.2996 2.40874L54.82 4.41985C56.3343 6.42883 58.1212 8.20566 60.1403 9.70985L60.1403 9.70988L61.9344 11.0459L60.0298 12.4792C58.0207 13.9835 56.2338 15.7705 54.7295 17.7795Z" fill="#FAFAFA" stroke="#FAFAFA" stroke-width="0.5"/>
<path d="M105.389 9.89885L103.509 8.49887C103.509 8.49886 103.509 8.49886 103.509 8.49885C101.608 7.08304 99.915 5.39988 98.4893 3.50886L98.4891 3.5086L96.9091 1.4186L96.9081 1.41726C96.6319 1.05712 96.2194 0.849365 95.7697 0.849365C95.3238 0.849365 94.8982 1.0542 94.6292 1.41999L93.0502 3.5086L93.05 3.50886C91.6243 5.39988 89.9313 7.08304 88.0303 8.49885C88.0303 8.49886 88.0303 8.49886 88.0303 8.49887L86.1518 9.89776C86.1515 9.89796 86.1513 9.89816 86.151 9.89836C85.7857 10.1667 85.5797 10.5821 85.5797 11.0394C85.5797 11.4979 85.7865 11.911 86.1475 12.1878L86.1495 12.1892L88.1991 13.729C90.0904 15.1549 91.7737 16.8381 93.1994 18.7391C93.1995 18.7392 93.1996 18.7393 93.1997 18.7394L94.628 20.6572C94.6283 20.6575 94.6285 20.6578 94.6287 20.658C94.8976 21.0243 95.3235 21.2294 95.7697 21.2294C96.2267 21.2294 96.642 21.0235 96.9103 20.6585C96.9106 20.6581 96.9109 20.6576 96.9113 20.6572L98.3994 18.6797L98.3997 18.6794C99.8255 16.7783 101.509 15.0952 103.399 13.6795L103.4 13.6791L105.38 12.1891L105.382 12.1878C105.743 11.911 105.95 11.4979 105.95 11.0394C105.95 10.7915 105.889 10.5559 105.775 10.3494H105.994L105.389 9.89885ZM97.2095 17.7795L95.78 19.6792L94.4102 17.84L94.4101 17.84C92.9057 15.8206 91.1186 14.0335 89.1095 12.5292L87.1399 11.0496L88.939 9.70988L88.939 9.70985C90.958 8.20566 92.745 6.42883 94.2593 4.41985L95.7797 2.40874L97.3 4.41985C98.8143 6.42883 100.601 8.20566 102.62 9.70985L102.62 9.70988L104.414 11.0459L102.51 12.4792C100.501 13.9835 98.7138 15.7705 97.2095 17.7795Z" fill="#FAFAFA" stroke="#FAFAFA" stroke-width="0.5"/>
</svg>
