<svg width="23" height="22" viewBox="0 0 23 22" fill="none" xmlns="http://www.w3.org/2000/svg">
<path d="M21.0422 9.76616L19.1622 8.36617C19.1622 8.36617 19.1622 8.36617 19.1622 8.36616C17.2613 6.95035 15.5682 5.26719 14.1425 3.37617L14.1423 3.37591L12.5623 1.28591L12.5613 1.28457C12.2852 0.924426 11.8726 0.716675 11.4229 0.716675C10.9771 0.716675 10.5515 0.921508 10.2824 1.2873L8.70348 3.37591L8.70329 3.37617C7.2776 5.26719 5.58454 6.95035 3.68359 8.36616C3.68359 8.36617 3.68358 8.36617 3.68358 8.36617L1.80507 9.76507C1.8048 9.76527 1.80452 9.76547 1.80425 9.76567C1.43893 10.034 1.23291 10.4494 1.23291 10.9067C1.23291 11.3652 1.43974 11.7783 1.8008 12.0551L1.80275 12.0566L3.85241 13.5963C5.7437 15.0222 7.42692 16.7054 8.85268 18.6064C8.85276 18.6065 8.85283 18.6066 8.85291 18.6067L10.2813 20.5245C10.2815 20.5248 10.2817 20.5251 10.2819 20.5253C10.5509 20.8916 10.9768 21.0967 11.4229 21.0967C11.88 21.0967 12.2952 20.8908 12.5636 20.5258C12.5639 20.5254 12.5642 20.525 12.5645 20.5245L14.0527 18.547L14.0529 18.5467C15.4787 16.6456 17.1619 14.9625 19.0527 13.5468L19.0532 13.5464L21.0332 12.0564L21.035 12.0551C21.3961 11.7783 21.6029 11.3652 21.6029 10.9067C21.6029 10.6588 21.5424 10.4232 21.4287 10.2167H21.6472L21.0422 9.76616ZM12.8628 17.6468L11.4332 19.5465L10.0634 17.7073L10.0634 17.7073C8.55894 15.6879 6.77185 13.9009 4.76275 12.3966L2.79313 10.9169L4.59223 9.57719L4.59227 9.57716C6.61131 8.07297 8.39824 6.29614 9.91255 4.28716L11.4329 2.27604L12.9533 4.28716C14.4676 6.29614 16.2545 8.07297 18.2736 9.57716L18.2736 9.57719L20.0677 10.9132L18.1631 12.3466C16.154 13.8508 14.3671 15.6378 12.8628 17.6468Z" fill="#FAFAFA" stroke="#FAFAFA" stroke-width="0.5"/>
</svg>
