<svg width="49" height="49" viewBox="0 0 49 49" fill="none" xmlns="http://www.w3.org/2000/svg">
<g clip-path="url(#clip0_74_163)">
<path d="M21.8783 48.1142C18.1081 47.7241 14.4856 46.4391 11.3124 44.3661C8.64123 42.626 8.03739 41.9091 8.03739 40.4813C8.03739 37.6108 11.1964 32.5807 16.6013 26.8486C19.6681 23.5914 23.9456 19.775 24.4067 19.8791C25.305 20.0814 32.4917 27.0866 35.1808 30.3825C39.4345 35.597 41.3918 39.8685 40.3983 41.7723C39.6427 43.2179 34.9547 46.0468 31.5131 47.1325C28.6753 48.0279 24.9481 48.4086 21.8783 48.1142ZM4.42917 37.4948C2.20713 34.0918 1.0857 30.7424 0.544321 25.8938C0.365844 24.2904 0.431285 23.3772 0.951844 20.0933C1.60031 15.9972 3.93241 11.2586 6.73748 8.34351C7.9303 7.1031 8.03739 7.07335 9.49197 7.56119C11.2619 8.15611 13.1508 9.45899 16.0748 12.1064L17.7822 13.6502L16.8512 14.7955C12.5201 20.1111 7.95112 27.6458 6.22584 32.307C5.28884 34.8414 4.91106 37.3847 5.31561 38.4437C5.5863 39.1576 5.33643 38.8899 4.42322 37.4948H4.42917ZM43.3997 38.0748C43.6198 37.004 43.3431 35.0407 42.6917 33.0566C41.2847 28.7643 36.5789 20.7774 32.2567 15.3487L30.8973 13.6383L32.3668 12.2879C34.2884 10.5239 35.624 9.46792 37.0667 8.56958C38.2 7.8646 39.8242 7.23695 40.5202 7.23695C40.9515 7.23695 42.4656 8.80755 43.6882 10.5209C45.6313 13.2942 46.9905 16.4335 47.6831 19.7482C48.1382 21.9137 48.1769 26.5482 47.7545 28.7077C47.3579 30.6419 46.7597 32.5292 45.9697 34.3387C45.4373 35.5077 44.1136 37.7774 43.5305 38.5151C43.2331 38.8958 43.2301 38.8928 43.3997 38.0748ZM22.2739 6.42488C20.2809 5.41351 17.2052 4.32778 15.5037 4.03626C14.7569 3.92205 14.0009 3.87922 13.2459 3.90836C11.8449 3.97975 11.9074 3.90836 14.1562 2.84344C15.9193 1.99748 17.7823 1.37781 19.7009 0.999178C22.0806 0.496468 26.5603 0.493493 28.9043 0.984305C31.4328 1.51974 34.4163 2.62629 36.097 3.66146L36.5967 3.96785L35.4515 3.90836C33.1729 3.79532 29.8592 4.7115 26.2956 6.44571C25.2218 6.96924 24.2848 7.38568 24.2163 7.37379C23.5584 7.07722 22.9126 6.76078 22.2739 6.42488Z" fill="#898989"/>
</g>
<defs>
<clipPath id="clip0_74_163">
<rect width="47.5939" height="47.5939" fill="white" transform="translate(0.454834 0.619141)"/>
</clipPath>
</defs>
</svg>
